<svg width="165" height="64" viewBox="0 0 165 64" fill="none" xmlns="http://www.w3.org/2000/svg">
<g clip-path="url(#clip0)">
<path d="M6.55826 10.295C6.18796 9.02969 7.14617 7.69762 8.92927 6.57397C10.3332 5.69027 12.3659 4.80534 14.6483 4.15913C16.9721 3.50116 19.172 3.18766 20.8388 3.20191C22.9978 3.20937 24.4999 3.88905 24.8582 5.11354L24.8702 5.15435L26.2677 9.92985L26.2797 9.97067C26.3991 10.3788 26.3821 10.7814 26.2407 11.2193C27.5101 11.2576 28.6669 11.3721 29.6817 11.6151C31.7112 12.1012 33.119 13.0728 33.549 14.5422L33.5609 14.583L35.1855 20.134L40.9072 39.685L43.6665 49.1136C43.6785 49.1544 43.6904 49.1952 43.7143 49.2768C43.7382 49.3585 43.7621 49.4401 43.7621 49.4401C44.3235 51.3585 43.017 53.4963 40.3932 55.4326C38.0952 57.0998 34.7767 58.6582 30.9175 59.7509C27.0584 60.8436 23.4054 61.2591 20.5579 61.0488C17.2772 60.7401 15.027 59.6535 14.4536 57.6943C14.4417 57.6535 14.4297 57.6127 14.4058 57.531C14.3939 57.4902 14.382 57.4494 14.3581 57.3678L11.5987 47.9392L5.87701 28.3882L4.25247 22.8372L4.24053 22.7964C3.8105 21.327 4.47761 19.768 5.93378 18.2949C6.66187 17.5584 7.57983 16.8565 8.63422 16.1602C8.28968 15.9041 8.05769 15.572 7.93823 15.1639L7.92629 15.1231L6.51676 10.3067L6.55826 10.295ZM24.6028 13.7603L25.0328 15.2297C25.0567 15.3114 25.0806 15.393 25.063 15.4864C25.2132 16.4604 24.5034 17.4128 23.2119 18.2204C22.2286 18.8524 20.824 19.4269 19.2471 19.8734C17.6703 20.3199 16.1582 20.527 15.0371 20.535C13.5483 20.5146 12.4323 20.0792 11.9916 19.1874C11.9677 19.1058 11.9023 19.0359 11.8784 18.9543L11.4484 17.4849C9.89605 18.3222 8.62851 19.2115 7.79982 20.0649C6.97114 20.9183 6.59892 21.6425 6.74226 22.1323L6.7542 22.1731L8.35485 27.6425L8.3668 27.6833L8.37874 27.7241C8.68869 28.4761 10.0895 28.9634 12.2014 29.1169C14.7226 29.287 18.0731 28.9129 21.6418 27.9024C25.2105 26.892 28.2505 25.4567 30.2939 23.9941C31.9581 22.7715 32.9226 21.6145 32.7787 20.8155L32.7548 20.7339L31.1661 15.3053L31.1541 15.2645C30.9988 14.7339 30.2507 14.3269 29.141 14.0665C27.8829 13.7598 26.3286 13.6695 24.6028 13.7603ZM14.1721 47.52L14.196 47.6016C14.4349 48.4179 15.8772 48.8935 18.0011 49.0878C20.5342 49.2987 23.8728 48.8838 27.4415 47.8733C31.0102 46.8629 34.0501 45.4276 36.135 43.9533C37.8704 42.6664 38.7934 41.5211 38.5545 40.7047L38.5425 40.6639L38.5306 40.6231C38.5067 40.5415 38.4413 40.4716 38.4055 40.3492C38.3816 40.2675 38.3577 40.1859 38.3633 40.0517L33.7645 24.3374C33.22 24.9336 32.5805 25.5124 31.8047 26.0857C29.5066 27.7529 26.1882 29.3113 22.329 30.404C18.4698 31.4967 14.8169 31.9122 11.9694 31.7019C11.0024 31.6221 10.1479 31.4662 9.36453 31.246L13.9754 47.0011C14.0646 47.1526 14.1124 47.3159 14.1187 47.4909C14.1602 47.4792 14.1602 47.4792 14.1721 47.52ZM15.2353 51.1526L16.7762 56.4179C16.8655 56.5694 16.9132 56.7327 16.9195 56.9077C16.9315 56.9485 16.9434 56.9893 16.9434 56.9893C16.9434 56.9893 16.9434 56.9893 16.9554 57.0302C17.1943 57.8465 18.6485 58.3629 20.7604 58.5163C23.2936 58.7272 26.6321 58.3123 30.2008 57.3019C33.7695 56.2914 36.8095 54.8561 38.8944 53.3818C40.6297 52.0949 41.5527 50.9496 41.3138 50.1333C41.3018 50.0925 41.3018 50.0925 41.3018 50.0925C41.278 50.0109 41.2126 49.941 41.1767 49.8185C41.1528 49.7369 41.1289 49.6553 41.1346 49.5211L39.5937 44.2558C39.0492 44.8519 38.4098 45.4308 37.622 45.9632C35.3239 47.6304 32.0054 49.1888 28.1463 50.2815C24.2871 51.3742 20.6342 51.7897 17.7866 51.5794C16.8611 51.4878 15.9652 51.3437 15.2353 51.1526ZM11.7094 14.5381C11.8754 14.4911 11.9999 14.4559 12.1778 14.4497C12.2193 14.4379 12.2608 14.4262 12.3142 14.4552C12.9429 14.454 13.6012 14.4002 14.3306 14.2821L14.3721 14.2704L14.4136 14.2586L14.455 14.2469C14.965 14.1467 15.5164 14.0348 16.0678 13.9228L16.1092 13.9111L16.1922 13.8876L16.2337 13.8758L16.2752 13.8641L16.3167 13.8523L16.3582 13.8406L16.3997 13.8288L16.4412 13.8171L16.4827 13.8053L16.5242 13.7936L16.5657 13.7819L16.8562 13.6996L16.8977 13.6879L16.9392 13.6761L16.9807 13.6644L17.0222 13.6526L17.0637 13.6409L17.1052 13.6291L17.1467 13.6174L17.1882 13.6056L17.2711 13.5821L17.3126 13.5704L17.3541 13.5586L17.3956 13.5469L17.4371 13.5351L17.4786 13.5234L17.5201 13.5116L17.5616 13.4999L17.6031 13.4881L17.6861 13.4646L17.7276 13.4529L17.7691 13.4411L17.8106 13.4294L17.8521 13.4176L17.8936 13.4059L17.9351 13.3941L17.9766 13.3824L18.0181 13.3706L18.0596 13.3589L18.1011 13.3471L18.1426 13.3354L18.1841 13.3236L18.2256 13.3119L18.2671 13.3001L18.3086 13.2884L18.3501 13.2766L18.433 13.2531L18.4745 13.2414C19.0555 13.0769 19.5296 12.8543 20.0156 12.6725L20.0571 12.6607L20.0986 12.649L20.1401 12.6372L20.2231 12.6137L20.2646 12.602L20.3475 12.5785L20.389 12.5667C21.0291 12.2971 21.6572 11.9867 22.1489 11.6706C22.1904 11.6589 22.2319 11.6471 22.2199 11.6063C22.374 11.5185 22.4985 11.4833 22.6644 11.4363C23.3102 11.0325 23.7188 10.7399 23.7069 10.6991L23.038 8.41342C22.8129 8.56555 22.6293 8.70593 22.3627 8.8698C20.9587 9.75351 18.926 10.6384 16.6022 11.2964C14.3199 11.9426 12.12 12.2561 10.4532 12.2419C10.1803 12.2307 9.90747 12.2196 9.6346 12.2085L10.2916 14.4533C10.4815 14.488 10.9442 14.5338 11.7094 14.5381ZM22.1608 14.6286C20.9756 15.1851 19.6421 15.6953 18.1897 16.1065C16.7373 16.5178 15.2906 16.7948 14.0275 16.9314L14.4097 18.2376C14.487 18.3483 14.6524 17.9921 15.0498 17.9679C15.9514 17.9779 17.2025 17.8004 18.5719 17.4127C19.9413 17.0249 21.0969 16.5209 21.8552 16.0411C22.2343 15.8011 22.5669 16.0163 22.543 15.9347L22.5311 15.8939L22.1608 14.6286ZM21.2205 33.6791L25.0796 32.5864C25.7851 32.3867 26.4918 32.8054 26.6829 33.4585L27.1368 35.0095L28.7137 34.563C29.3776 34.375 30.1258 34.7819 30.3169 35.435L31.4278 39.2309C31.6309 39.9248 31.2052 40.6199 30.5413 40.8079L28.9644 41.2544L29.4183 42.8054C29.6214 43.4993 29.2372 44.1826 28.5318 44.3823L24.6726 45.475C23.9672 45.6748 23.2724 45.2969 23.0694 44.603L22.6155 43.052L21.0386 43.4985C20.3746 43.6865 19.6384 43.3203 19.4353 42.6265L18.3244 38.8306C18.1333 38.1775 18.547 37.4416 19.211 37.2536L20.7878 36.8071L20.3339 35.2561C20.1428 34.603 20.515 33.8789 21.2205 33.6791ZM24.5515 35.3879L23.1821 35.7756L23.636 37.3267C23.8391 38.0205 23.4134 38.7156 22.7494 38.9036L21.1726 39.3501L21.5668 40.697L23.1436 40.2506C23.8076 40.0626 24.5558 40.4695 24.7469 41.1226L25.2008 42.6736L26.5702 42.2859L26.1163 40.7348C25.9251 40.0818 26.3389 39.3459 27.0028 39.1579L28.5797 38.7114L28.1855 37.3645L26.6086 37.8109C25.9447 37.9989 25.2084 37.6328 25.0054 36.9389L24.5515 35.3879ZM22.3684 5.8185C22.3565 5.77768 21.7158 5.73809 20.7727 5.73993C19.3788 5.73681 17.4813 6.00888 15.365 6.6081C13.2901 7.19557 11.536 7.95744 10.3275 8.74158C9.52778 9.23321 9.04805 9.59003 9.05999 9.63085C9.07194 9.67167 9.67112 9.72301 10.6142 9.72117C12.0616 9.75335 14.0006 9.46953 16.0339 8.89381C18.1087 8.30634 19.9044 7.53273 21.0713 6.76033C21.9006 6.21613 22.3804 5.85931 22.3684 5.8185Z" fill="#A9D18E"/>
</g>
<g clip-path="url(#clip1)">
<path d="M95.5967 47.327C97.2126 47.2717 98.7299 47.8594 99.8184 48.9016C100.905 49.9038 101.645 51.3577 101.701 52.9549C101.758 54.5522 101.163 56.0517 100.109 57.1272C99.0958 58.2014 97.6252 58.9314 96.0092 58.9867C94.4337 59.0406 92.9986 58.4901 91.913 57.5278C90.1985 58.2261 88.6733 58.5582 87.2593 58.6066C84.1877 58.6717 81.9582 57.3888 80.3872 55.2837C78.9026 53.3356 77.9582 50.6493 77.4553 47.868C76.7499 43.9343 76.8425 39.6934 77.2228 36.7219C74.1412 36.5076 71.3072 35.2853 69.0955 33.362C66.5925 31.2089 64.8664 28.1496 64.4607 24.6854C64.416 24.567 64.4118 24.4472 64.4076 24.3274L64.3793 23.5288L64.3779 23.4888L63.947 11.31C63.4424 10.7676 63.1356 10.0985 63.1088 9.33978C63.0791 8.50124 63.4159 7.73012 63.9616 7.15173C64.4656 6.5348 65.2623 6.1877 66.1106 6.15866C66.959 6.12962 67.7378 6.42279 68.3232 6.96245C68.9085 7.50212 69.2585 8.24974 69.2882 9.08828C69.3179 9.92682 68.9811 10.6979 68.4758 11.2749C67.93 11.8533 67.2141 12.1977 66.3658 12.2267L66.7614 23.4072L66.7628 23.4472L66.7825 24.0062C66.7854 24.0861 66.7868 24.126 66.8286 24.1645C67.0947 27.1139 68.5211 29.7036 70.6896 31.5484C72.7759 33.356 75.5639 34.4199 78.5937 34.3162C81.6235 34.2125 84.3296 32.9605 86.2831 31.0146C88.2366 29.0687 89.4764 26.3877 89.6157 23.4645C89.6129 23.3846 89.61 23.3047 89.6072 23.2249L89.5874 22.6659L89.586 22.6259L89.1904 11.4454C88.3825 11.473 87.6022 11.1399 87.0587 10.6388C86.4733 10.0992 86.1233 9.35154 86.0936 8.513C86.064 7.67446 86.3603 6.90472 86.9061 6.32633C87.4115 5.74933 88.1677 5.40361 89.0161 5.37457C89.8644 5.34553 90.6433 5.6387 91.2286 6.17837C91.814 6.71803 92.164 7.46565 92.1937 8.30419C92.2205 9.06287 91.9632 9.7913 91.4968 10.327L91.9291 22.5457L91.9305 22.5856L91.9588 23.3843C91.963 23.5041 91.9672 23.6238 91.9311 23.745C91.7712 27.2287 90.2641 30.3586 87.9208 32.7176C85.7724 34.8701 82.8714 36.3287 79.6076 36.6802C79.2203 39.452 79.0845 43.6145 79.7467 47.4698C80.1979 49.933 80.9666 52.2255 82.1974 53.8625C83.3433 55.3824 84.9527 56.2868 87.0952 56.2534C88.0647 56.2203 89.1498 56.0232 90.3476 55.5824C90.0408 54.9133 89.8538 54.2001 89.8255 53.4014C89.769 51.8042 90.3631 50.3047 91.4171 49.2291C92.5087 48.0724 93.9404 47.3837 95.5967 47.327ZM66.6872 8.73754C66.5604 8.58197 66.357 8.54895 66.1954 8.55449C65.9934 8.5614 65.8332 8.60686 65.7177 8.77073C65.6007 8.89467 65.5256 9.05716 65.5326 9.25681C65.5397 9.45646 65.6262 9.61342 65.7516 9.72906C65.877 9.84471 66.0414 9.91904 66.2434 9.91212C66.405 9.90659 66.6042 9.81982 66.7211 9.69588C66.8381 9.57194 66.9132 9.40945 66.9062 9.20979C66.8991 9.01014 66.8127 8.85319 66.6872 8.73754ZM89.5927 7.95346C89.4658 7.79789 89.3028 7.76349 89.1009 7.7704C88.8989 7.77732 88.7401 7.86271 88.6231 7.98665C88.5062 8.11059 88.431 8.27308 88.4381 8.47273C88.4452 8.67238 88.5316 8.82934 88.6571 8.94498C88.7825 9.06062 88.9469 9.13495 89.1489 9.12804C89.3509 9.12112 89.5096 9.03573 89.6266 8.91179C89.7435 8.78785 89.8187 8.62536 89.8116 8.42571C89.8046 8.22606 89.7181 8.0691 89.5927 7.95346ZM92.8743 54.9762C93.0805 55.0891 93.2896 55.2818 93.3789 55.5186C93.4207 55.5572 93.4221 55.5971 93.4235 55.637C94.091 56.2139 94.9535 56.5841 95.8827 56.5523C96.8522 56.5191 97.6864 56.0908 98.3116 55.4697C98.9354 54.8087 99.2693 53.9577 99.2354 52.9994C99.2015 52.041 98.7678 51.2163 98.1392 50.5982C97.4703 49.9814 96.6092 49.6511 95.6397 49.6843C94.6701 49.7175 93.8359 50.1458 93.2107 50.7669C92.587 51.4279 92.2531 52.2789 92.287 53.2372C92.3514 53.9147 92.5328 54.4682 92.8743 54.9762Z" fill="#F2826D"/>
</g>
<g clip-path="url(#clip2)">
<path d="M148.338 42.7066C148.501 42.0324 149.125 41.6335 149.778 41.7863C150.393 41.93 150.807 42.5714 150.644 43.2456C149.925 46.2203 148.073 48.6785 145.72 50.1817C143.367 51.6849 140.418 52.2945 137.535 51.6207C136.92 51.477 136.506 50.8356 136.669 50.1613C136.823 49.5267 137.495 49.0972 138.11 49.241C140.378 49.771 142.645 49.2953 144.508 48.1385C146.342 46.9331 147.772 45.0467 148.338 42.7066ZM157.053 44.2827C155.893 49.0818 152.956 53.0044 149.115 55.4586C145.273 57.9129 140.576 58.8681 135.925 57.781C131.236 56.685 127.477 53.7533 125.207 49.8706C122.899 45.9789 122.069 41.1759 123.229 36.3768C124.829 29.7533 133.058 21.9136 140.086 15.1761C142.621 12.7517 145.002 10.4589 146.769 8.52535C147.21 8.04195 147.95 8.00536 148.45 8.45741C148.614 8.62132 148.69 8.80692 148.767 8.99252C149.49 11.5497 150.577 14.6113 151.732 17.8982C154.89 27.0165 158.653 37.6592 157.053 44.2827ZM147.903 53.4155C151.216 51.2988 153.741 47.9082 154.747 43.7437C156.174 37.8341 152.565 27.5626 149.456 18.7489C148.609 16.2044 147.762 13.8275 147.069 11.6542C145.456 13.2885 143.612 15.0365 141.653 16.9251C134.884 23.4299 126.963 31.0062 125.535 36.9159C124.529 41.0804 125.271 45.2346 127.262 48.5911C129.253 51.9477 132.464 54.458 136.538 55.4103C140.536 56.3446 144.599 55.4926 147.903 53.4155Z" fill="#EFBC3F"/>
</g>
<defs>
<clipPath id="clip0">
<rect width="30.4913" height="57.9235" fill="white" transform="matrix(0.962175 -0.272431 0.280875 0.959744 0 8.30664)"/>
</clipPath>
<clipPath id="clip1">
<rect width="36.9855" height="53.7801" fill="white" transform="matrix(0.999415 -0.0342113 0.0353597 0.999375 63 6.26514)"/>
</clipPath>
<clipPath id="clip2">
<rect width="34.7358" height="51.0445" fill="white" transform="matrix(0.973754 0.227602 -0.234836 0.972035 131 4.21045)"/>
</clipPath>
</defs>
</svg>
