<svg width="142" height="64" viewBox="0 0 142 64" fill="none" xmlns="http://www.w3.org/2000/svg">
<path d="M30.7318 17.2017C25.0205 17.2017 21.4577 20.8092 20.0433 28.0244H33.7396V31.4888H19.6674L19.6136 33.0195V34.7383L19.6674 35.9468H32.1014V39.4111H20.097C20.7595 42.6338 21.9948 45.1313 23.8031 46.9038C25.6293 48.6584 28.0642 49.5356 31.1078 49.5356C33.9007 49.5356 36.6669 48.9448 39.4061 47.7632V51.7915C36.7922 52.9552 33.9545 53.5371 30.8929 53.5371C26.6498 53.5371 23.2302 52.3376 20.6341 49.9385C18.056 47.5215 16.3552 44.0124 15.5316 39.4111H11.0736V35.9468H15.1556L15.1019 34.8188V33.6372L15.1556 31.4888H11.0736V28.0244H15.4779C16.1761 23.3516 17.8322 19.7082 20.4462 17.0942C23.0601 14.4803 26.4886 13.1733 30.7318 13.1733C34.3304 13.1733 37.6068 14.0417 40.5609 15.7783L38.6542 19.5112C35.6822 17.9715 33.0414 17.2017 30.7318 17.2017Z" fill="#A9D18E"/>
<path d="M75.7921 17.2017C70.0808 17.2017 66.518 20.8092 65.1036 28.0244H78.7999V31.4888H64.7277L64.6739 33.0195V34.7383L64.7277 35.9468H77.1617V39.4111H65.1573C65.8198 42.6338 67.0551 45.1313 68.8634 46.9038C70.6896 48.6584 73.1245 49.5356 76.1681 49.5356C78.9611 49.5356 81.7272 48.9448 84.4664 47.7632V51.7915C81.8525 52.9552 79.0148 53.5371 75.9532 53.5371C71.7101 53.5371 68.2905 52.3376 65.6945 49.9385C63.1163 47.5215 61.4155 44.0124 60.5919 39.4111H56.1339V35.9468H60.2159L60.1622 34.8188V33.6372L60.2159 31.4888H56.1339V28.0244H60.5382C61.2364 23.3516 62.8925 19.7082 65.5065 17.0942C68.1204 14.4803 71.5489 13.1733 75.7921 13.1733C79.3907 13.1733 82.6671 14.0417 85.6212 15.7783L83.7145 19.5112C80.7425 17.9715 78.1017 17.2017 75.7921 17.2017Z" fill="#BDBDBD"/>
<path d="M120.852 17.2017C115.141 17.2017 111.578 20.8092 110.164 28.0244H123.86V31.4888H109.788L109.734 33.0195V34.7383L109.788 35.9468H122.222V39.4111H110.218C110.88 42.6338 112.115 45.1313 113.924 46.9038C115.75 48.6584 118.185 49.5356 121.228 49.5356C124.021 49.5356 126.787 48.9448 129.527 47.7632V51.7915C126.913 52.9552 124.075 53.5371 121.014 53.5371C116.77 53.5371 113.351 52.3376 110.755 49.9385C108.177 47.5215 106.476 44.0124 105.652 39.4111H101.194V35.9468H105.276L105.223 34.8188V33.6372L105.276 31.4888H101.194V28.0244H105.599C106.297 23.3516 107.953 19.7082 110.567 17.0942C113.181 14.4803 116.609 13.1733 120.852 13.1733C124.451 13.1733 127.727 14.0417 130.682 15.7783L128.775 19.5112C125.803 17.9715 123.162 17.2017 120.852 17.2017Z" fill="#BDBDBD"/>
</svg>
