<svg width="165" height="64" fill="none" xmlns="http://www.w3.org/2000/svg"><g clip-path="url(#clip0)"><path d="M6.558 10.295c-.37-1.265.588-2.597 2.371-3.721 1.404-.884 3.437-1.769 5.72-2.415 2.323-.658 4.523-.971 6.19-.957 2.159.007 3.66.687 4.02 1.912l.011.04 1.398 4.776.012.04c.12.409.102.811-.04 1.25 1.27.038 2.427.152 3.442.395 2.03.486 3.437 1.458 3.867 2.927l.012.041 1.624 5.551 5.722 19.551 2.76 9.429.047.163.048.163c.562 1.919-.745 4.056-3.369 5.993-2.298 1.667-5.616 3.225-9.476 4.318-3.859 1.093-7.512 1.508-10.36 1.298-3.28-.309-5.53-1.395-6.103-3.355l-.048-.163-.048-.163-2.76-9.429-5.721-19.55-1.625-5.552-.011-.04c-.43-1.47.237-3.029 1.693-4.502.728-.737 1.646-1.439 2.7-2.135a1.864 1.864 0 01-.696-.996l-.012-.04-1.41-4.817.042-.012zm18.045 3.465l.43 1.47a.522.522 0 01.03.256c.15.974-.56 1.927-1.851 2.734-.983.632-2.388 1.207-3.965 1.653-1.577.447-3.089.654-4.21.662-1.489-.02-2.605-.456-3.045-1.348-.024-.081-.09-.151-.114-.233l-.43-1.47c-1.552.838-2.82 1.727-3.648 2.58-.829.854-1.201 1.578-1.058 2.068l.012.041 1.6 5.47.013.04.012.041c.31.752 1.71 1.24 3.822 1.393 2.522.17 5.872-.204 9.44-1.215 3.57-1.01 6.61-2.445 8.653-3.908 1.664-1.223 2.629-2.38 2.485-3.178l-.024-.082-1.589-5.429-.012-.04c-.155-.531-.903-.938-2.013-1.199-1.258-.306-2.812-.397-4.538-.306zm-10.43 33.76l.023.082c.239.816 1.681 1.292 3.805 1.486 2.533.21 5.872-.204 9.44-1.215 3.57-1.01 6.61-2.445 8.694-3.92 1.735-1.287 2.658-2.432 2.42-3.248l-.013-.041-.011-.04c-.024-.083-.09-.152-.125-.275a.822.822 0 01-.043-.297l-4.599-15.715a13.445 13.445 0 01-1.96 1.749c-2.297 1.667-5.616 3.225-9.475 4.318-3.86 1.093-7.512 1.508-10.36 1.298a13.72 13.72 0 01-2.604-.456l4.61 15.755c.09.152.137.315.144.49.041-.012.041-.012.053.029zm1.062 3.633l1.541 5.265c.09.151.137.315.143.49l.024.081.012.041c.24.816 1.694 1.333 3.805 1.486 2.534.211 5.872-.204 9.44-1.214 3.57-1.01 6.61-2.446 8.694-3.92 1.736-1.287 2.659-2.432 2.42-3.249l-.012-.04c-.024-.082-.09-.152-.125-.275a.815.815 0 01-.042-.297l-1.541-5.265a10.953 10.953 0 01-1.972 1.707c-2.298 1.667-5.617 3.226-9.476 4.319-3.859 1.092-7.512 1.508-10.36 1.297-.925-.091-1.82-.235-2.55-.426zM11.71 14.538c.166-.047.29-.082.469-.088.041-.012.083-.024.136.005a12.657 12.657 0 002.017-.173l.041-.012.042-.011.041-.012c.51-.1 1.061-.212 1.613-.324l.041-.012.083-.023.042-.012.041-.012.042-.012.041-.011.042-.012.041-.012.042-.012.041-.011.042-.012.29-.082.042-.012.041-.012.042-.012.041-.011.042-.012.041-.012.042-.012.041-.011.083-.024.042-.012.041-.011.042-.012.041-.012.042-.012.041-.011.042-.012.041-.012.083-.023.042-.012.041-.012.042-.012.041-.011.042-.012.041-.012.042-.012.041-.011.042-.012.041-.012.042-.012.041-.011.042-.012.041-.012.042-.012.041-.011.083-.024.041-.012c.581-.164 1.056-.387 1.542-.569l.041-.011.042-.012.041-.012.083-.023.042-.012.082-.024.042-.011c.64-.27 1.268-.58 1.76-.896.041-.012.083-.024.07-.065.155-.088.28-.123.445-.17.646-.403 1.055-.696 1.043-.737l-.669-2.286c-.225.153-.409.293-.675.457-1.404.884-3.437 1.768-5.76 2.426-2.283.647-4.483.96-6.15.946l-.818-.034.657 2.245c.19.035.652.08 1.417.085zm10.452.09a26.102 26.102 0 01-3.971 1.479c-1.453.41-2.9.688-4.163.824l.383 1.307c.077.11.242-.246.64-.27.901.01 2.152-.168 3.522-.555 1.37-.388 2.525-.892 3.283-1.372.38-.24.712-.025.688-.106l-.012-.041-.37-1.265zm-.94 19.051l3.859-1.093c.705-.2 1.412.22 1.603.873l.454 1.55 1.577-.446c.664-.188 1.412.219 1.603.872l1.11 3.796c.204.694-.222 1.389-.886 1.577l-1.577.446.454 1.551c.203.694-.18 1.378-.886 1.577l-3.86 1.093c-.705.2-1.4-.178-1.603-.872l-.453-1.551-1.577.447c-.664.188-1.4-.179-1.604-.873l-1.11-3.795c-.192-.654.222-1.39.886-1.577l1.577-.447-.454-1.55a1.275 1.275 0 01.887-1.578zm3.33 1.709l-1.369.388.454 1.55c.203.694-.223 1.39-.887 1.578l-1.576.446.394 1.347 1.577-.446c.664-.188 1.412.218 1.603.872l.454 1.55 1.37-.387-.455-1.551c-.19-.653.223-1.39.887-1.577l1.577-.447-.394-1.346-1.577.446c-.664.188-1.4-.178-1.604-.872l-.453-1.551zm-2.183-29.57c-.011-.04-.652-.08-1.595-.078-1.394-.003-3.292.269-5.408.868-2.075.588-3.829 1.35-5.037 2.134-.8.491-1.28.848-1.268.889.012.04.611.092 1.554.09 1.448.032 3.387-.251 5.42-.827 2.075-.588 3.87-1.361 5.037-2.134.83-.544 1.31-.9 1.297-.941z" fill="#A9D18E"/></g><g clip-path="url(#clip1)"><path d="M95.597 47.327c1.616-.055 3.133.532 4.221 1.575 1.087 1.002 1.827 2.456 1.883 4.053a5.66 5.66 0 01-1.592 4.172 5.958 5.958 0 01-4.1 1.86 5.827 5.827 0 01-4.096-1.46c-1.715.7-3.24 1.031-4.654 1.08-3.071.065-5.3-1.218-6.872-3.323-1.484-1.948-2.429-4.635-2.932-7.416-.705-3.934-.612-8.175-.232-11.146a13.842 13.842 0 01-8.127-3.36c-2.504-2.153-4.23-5.212-4.635-8.677a1.051 1.051 0 01-.053-.358l-.029-.798-.001-.04-.431-12.179c-.505-.542-.811-1.212-.838-1.97-.03-.839.307-1.61.853-2.188.504-.617 1.3-.964 2.149-.993a3.075 3.075 0 012.212.803 3 3 0 01.965 2.126c.03.839-.307 1.61-.812 2.187a2.973 2.973 0 01-2.11.952l.395 11.18.002.04.02.56c.002.08.004.119.046.157.266 2.95 1.692 5.54 3.86 7.384a11.441 11.441 0 007.905 2.768c3.03-.104 5.736-1.355 7.69-3.301a11.434 11.434 0 003.332-7.55l-.009-.24-.02-.56-.001-.04-.396-11.18a3.054 3.054 0 01-2.131-.806 3.003 3.003 0 01-.965-2.126 2.997 2.997 0 01.812-2.187c.505-.577 1.262-.922 2.11-.951a3.075 3.075 0 012.213.803c.585.54.935 1.288.965 2.126a2.931 2.931 0 01-.697 2.023l.432 12.219.001.04.029.798c.004.12.008.24-.028.361-.16 3.484-1.667 6.614-4.01 8.973a13.816 13.816 0 01-8.313 3.962c-.388 2.772-.523 6.934.139 10.79.45 2.463 1.22 4.755 2.45 6.392 1.146 1.52 2.756 2.425 4.898 2.391.97-.033 2.055-.23 3.253-.67a5.623 5.623 0 01-.522-2.182 5.661 5.661 0 011.591-4.172c1.092-1.157 2.523-1.845 4.18-1.902zm-28.91-38.59c-.127-.155-.33-.188-.492-.183-.202.007-.362.053-.477.217a.657.657 0 00-.185.486c.007.2.093.356.219.472.125.116.29.19.491.183a.75.75 0 00.478-.216.657.657 0 00.185-.486.659.659 0 00-.219-.472zm22.906-.784c-.127-.155-.29-.19-.492-.183a.673.673 0 00-.478.217.657.657 0 00-.185.486c.007.2.094.356.22.472.124.116.289.19.49.183a.673.673 0 00.479-.216.657.657 0 00.185-.486.659.659 0 00-.22-.473zm3.281 47.023c.207.113.416.306.505.543.042.038.043.078.044.118.668.577 1.53.947 2.46.915.97-.033 1.803-.461 2.429-1.082a3.354 3.354 0 00.923-2.47c-.034-.959-.467-1.784-1.096-2.402a3.441 3.441 0 00-2.5-.914c-.969.034-1.803.462-2.428 1.083a3.354 3.354 0 00-.924 2.47c.064.678.246 1.231.587 1.74z" fill="#F2826D"/></g><g clip-path="url(#clip2)"><path d="M148.338 42.707c.163-.675.787-1.074 1.44-.92.615.143 1.029.784.866 1.459a11.447 11.447 0 01-4.924 6.936c-2.353 1.503-5.302 2.112-8.185 1.439-.615-.144-1.029-.785-.866-1.46.154-.634.826-1.064 1.441-.92 2.268.53 4.535.054 6.398-1.102a9.025 9.025 0 003.83-5.432zm8.715 1.576a18.337 18.337 0 01-7.938 11.176c-3.842 2.454-8.539 3.41-13.19 2.322a16.765 16.765 0 01-10.718-7.91c-2.308-3.892-3.138-8.695-1.978-13.494 1.6-6.624 9.829-14.463 16.857-21.2 2.535-2.425 4.916-4.718 6.683-6.652a1.182 1.182 0 011.681-.068c.164.164.24.35.317.536.723 2.557 1.81 5.618 2.965 8.905 3.158 9.119 6.921 19.761 5.321 26.385zm-9.15 9.133c3.313-2.117 5.838-5.508 6.844-9.672 1.427-5.91-2.182-16.181-5.291-24.995-.847-2.545-1.694-4.921-2.387-7.095-1.613 1.635-3.457 3.383-5.416 5.271-6.769 6.505-14.69 14.081-16.118 19.99-1.006 4.165-.264 8.32 1.727 11.676 1.991 3.357 5.202 5.867 9.276 6.82 3.998.934 8.061.082 11.365-1.995z" fill="#EFBC3F"/></g><defs><clipPath id="clip0"><path fill="#fff" transform="matrix(.96218 -.27243 .28087 .95974 0 8.307)" d="M0 0h30.491v57.923H0z"/></clipPath><clipPath id="clip1"><path fill="#fff" transform="rotate(-1.96 214.557 -1837.828) skewX(.066)" d="M0 0h36.986v53.78H0z"/></clipPath><clipPath id="clip2"><path fill="#fff" transform="matrix(.97375 .2276 -.23484 .97203 131 4.21)" d="M0 0h34.736v51.044H0z"/></clipPath></defs></svg>