<svg width="142" height="64" fill="none" xmlns="http://www.w3.org/2000/svg"><path d="M30.732 17.202c-5.712 0-9.274 3.607-10.689 10.822H33.74v3.465H19.667l-.053 1.53v1.72l.053 1.208h12.434v3.464H20.097c.662 3.223 1.898 5.72 3.706 7.493 1.826 1.754 4.261 2.632 7.305 2.632 2.793 0 5.559-.591 8.298-1.773v4.029c-2.614 1.163-5.451 1.745-8.513 1.745-4.243 0-7.663-1.2-10.259-3.599-2.578-2.416-4.279-5.926-5.102-10.527h-4.458v-3.464h4.082l-.054-1.128v-1.182l.054-2.148h-4.082v-3.465h4.404c.698-4.672 2.354-8.316 4.968-10.93 2.614-2.614 6.043-3.92 10.286-3.92 3.598 0 6.875.868 9.829 2.604l-1.907 3.733c-2.972-1.54-5.613-2.31-7.922-2.31z" fill="#A9D18E"/><path d="M75.792 17.202c-5.711 0-9.274 3.607-10.688 10.822H78.8v3.465H64.728l-.054 1.53v1.72l.054 1.208h12.434v3.464H65.157c.663 3.223 1.898 5.72 3.706 7.493 1.827 1.754 4.261 2.632 7.305 2.632 2.793 0 5.56-.591 8.298-1.773v4.029c-2.613 1.163-5.451 1.745-8.513 1.745-4.243 0-7.663-1.2-10.258-3.599-2.579-2.416-4.28-5.926-5.103-10.527h-4.458v-3.464h4.082l-.054-1.128v-1.182l.054-2.148h-4.082v-3.465h4.404c.698-4.672 2.355-8.316 4.969-10.93 2.613-2.614 6.042-3.92 10.285-3.92 3.599 0 6.875.868 9.83 2.604l-1.907 3.733c-2.972-1.54-5.613-2.31-7.923-2.31zm45.06 0c-5.711 0-9.274 3.607-10.688 10.822h13.696v3.465h-14.072l-.054 1.53v1.72l.054 1.208h12.434v3.464h-12.004c.662 3.223 1.897 5.72 3.706 7.493 1.826 1.754 4.261 2.632 7.304 2.632 2.793 0 5.559-.591 8.299-1.773v4.029c-2.614 1.163-5.452 1.745-8.513 1.745-4.244 0-7.663-1.2-10.259-3.599-2.578-2.416-4.279-5.926-5.103-10.527h-4.458v-3.464h4.082l-.053-1.128v-1.182l.053-2.148h-4.082v-3.465h4.405c.698-4.672 2.354-8.316 4.968-10.93 2.614-2.614 6.042-3.92 10.285-3.92 3.599 0 6.875.868 9.83 2.604l-1.907 3.733c-2.972-1.54-5.613-2.31-7.923-2.31z" fill="#BDBDBD"/></svg>