<svg width="366" height="354" viewBox="0 0 366 354" fill="none" xmlns="http://www.w3.org/2000/svg">
<path d="M277.261 43.7911C302.76 62.3243 326.889 81.7129 343.615 107.945C360.34 134.461 369.937 167.821 364.453 197.76C358.969 227.983 338.131 254.785 316.196 280.446C294.535 305.823 271.503 330.058 243.262 342.034C214.746 354.009 181.021 353.724 140.441 352.583C99.8612 351.443 52.7008 349.162 32.4109 323.5C12.121 297.839 18.7015 248.797 13.7661 202.322C8.8307 155.846 -7.6206 112.221 4.1695 80.2873C15.9596 48.3531 55.7169 28.3942 92.7323 15.2784C129.474 2.4477 163.747 -3.53997 194.182 2.16257C224.617 7.8651 251.761 25.2578 277.261 43.7911Z" fill="#A9D18E"/>
<path d="M172.7 119.406C179.378 119.519 185.828 116.979 190.637 112.344C195.446 107.709 198.221 101.356 198.353 94.6783C198.221 88.0006 195.446 81.6479 190.637 77.0127C185.828 72.3774 179.378 69.8378 172.7 69.9504C169.376 69.8666 166.068 70.4407 162.966 71.6397C159.865 72.8387 157.031 74.639 154.627 76.937C152.224 79.235 150.298 81.9854 148.961 85.0301C147.624 88.0748 146.902 91.3537 146.837 94.6783C146.902 98.003 147.624 101.282 148.961 104.327C150.298 107.371 152.224 110.122 154.627 112.42C157.031 114.718 159.865 116.518 162.966 117.717C166.068 118.916 169.376 119.49 172.7 119.406Z" fill="white"/>
<path d="M202.515 133.031V182.991C202.266 184.493 201.452 185.844 200.241 186.766C199.029 187.689 197.511 188.113 195.996 187.954H151.335C149.818 188.124 148.295 187.703 147.081 186.779C145.867 185.855 145.056 184.498 144.816 182.991V133.031C145.065 131.525 145.877 130.17 147.087 129.241C148.298 128.312 149.816 127.878 151.335 128.026H158.778H160.082C163.723 131.556 168.594 133.53 173.665 133.53C178.736 133.53 183.608 131.556 187.249 128.026H188.553H195.996C197.521 127.846 199.055 128.268 200.273 129.203C201.491 130.138 202.295 131.511 202.515 133.031Z" fill="white"/>
<path d="M195.285 191.444H149.74C148.401 191.444 147.118 191.976 146.171 192.922C145.225 193.869 144.693 195.152 144.693 196.491V213.313C144.693 214.651 145.225 215.935 146.171 216.881C147.118 217.827 148.401 218.359 149.74 218.359H195.285C196.623 218.359 197.907 217.827 198.853 216.881C199.8 215.935 200.331 214.651 200.331 213.313V196.491C200.331 195.152 199.8 193.869 198.853 192.922C197.907 191.976 196.623 191.444 195.285 191.444Z" fill="white"/>
<path d="M156.677 197.627H156.214C154.698 197.627 153.196 197.926 151.795 198.508C150.394 199.09 149.122 199.942 148.052 201.017C146.981 202.091 146.133 203.366 145.557 204.769C144.98 206.172 144.686 207.675 144.691 209.192V272.568C144.686 274.084 144.98 275.587 145.557 276.99C146.133 278.393 146.981 279.668 148.052 280.743C149.122 281.817 150.394 282.67 151.795 283.252C153.196 283.833 154.698 284.133 156.214 284.133H156.677C159.737 284.122 162.668 282.898 164.827 280.731C166.987 278.563 168.2 275.628 168.2 272.568V209.192C168.2 206.132 166.987 203.197 164.827 201.029C162.668 198.861 159.737 197.638 156.677 197.627Z" fill="white"/>
<path d="M188.764 197.628H188.301C185.264 197.672 182.365 198.91 180.232 201.074C178.1 203.238 176.904 206.154 176.905 209.193V272.568C176.905 275.628 178.117 278.564 180.277 280.731C182.437 282.899 185.368 284.122 188.428 284.133H188.89C191.957 284.133 194.899 282.915 197.068 280.746C199.237 278.577 200.455 275.636 200.455 272.568V209.193C200.455 207.663 200.152 206.149 199.563 204.738C198.974 203.326 198.111 202.046 197.023 200.97C195.936 199.894 194.646 199.045 193.229 198.471C191.811 197.898 190.293 197.611 188.764 197.628Z" fill="white"/>
<path d="M121.77 203.851C120.059 202.568 118.834 200.74 118.299 198.669C117.764 196.598 117.95 194.406 118.827 192.454L144.396 133.031C144.661 132.092 145.137 131.225 145.789 130.498C146.441 129.771 147.25 129.203 148.156 128.838C149.061 128.472 150.038 128.319 151.012 128.39C151.986 128.461 152.931 128.754 153.774 129.247C155.489 130.537 156.715 132.372 157.25 134.45C157.785 136.529 157.597 138.727 156.718 140.685L131.149 200.318C130.855 201.236 130.357 202.076 129.693 202.775C129.029 203.473 128.216 204.012 127.314 204.352C126.412 204.692 125.445 204.823 124.485 204.737C123.525 204.65 122.597 204.347 121.77 203.851Z" fill="white"/>
<path d="M225.478 203.85C227.183 202.561 228.399 200.731 228.926 198.66C229.453 196.589 229.261 194.4 228.38 192.453L202.811 133.031C202.529 132.104 202.039 131.254 201.378 130.546C200.717 129.838 199.903 129.291 198.997 128.946C198.092 128.601 197.12 128.467 196.156 128.556C195.191 128.644 194.26 128.952 193.433 129.456C191.717 130.746 190.492 132.581 189.957 134.66C189.422 136.738 189.609 138.937 190.489 140.895L216.1 200.317C216.387 201.24 216.88 202.086 217.543 202.789C218.206 203.492 219.021 204.035 219.926 204.376C220.83 204.716 221.8 204.846 222.763 204.755C223.725 204.664 224.654 204.354 225.478 203.85Z" fill="white"/>
</svg>
