<svg width="374" height="339" viewBox="0 0 374 339" fill="none" xmlns="http://www.w3.org/2000/svg">
<path d="M281.261 42.0424C306.76 59.8356 330.889 78.4499 347.615 103.634C364.34 129.092 373.937 161.12 368.453 189.863C362.969 218.879 342.131 244.611 320.196 269.247C298.535 293.61 275.503 316.878 247.262 328.375C218.746 339.873 185.021 339.599 144.441 338.504C103.861 337.409 56.7008 335.219 36.4109 310.582C16.121 285.946 22.7015 238.862 17.7661 194.242C12.8307 149.623 -3.6206 107.74 8.1695 77.0812C19.9596 46.4223 59.7169 27.2604 96.7323 14.6683C133.474 2.34996 167.747 -3.39861 198.182 2.07621C228.617 7.55103 255.761 24.2492 281.261 42.0424Z" fill="#F2826D"/>
<path d="M238.255 123.078C239.697 129.624 239.543 136.44 237.807 142.948C235.901 149.862 233.373 156.594 230.255 163.061C227.246 169.997 225.238 175.337 224.713 179.256C224.209 181.215 223.911 186.625 224.062 195.45C224.275 203.722 223.86 212.006 222.82 220.228C218.88 246.964 212.868 260.211 204.816 260.211C203.18 260.219 201.576 259.794 200.164 258.98C198.74 257.672 197.741 255.964 197.295 254.073C196.619 251.999 196.143 249.862 195.875 247.692C195.578 244.924 195.439 242.14 195.46 239.352C195.415 236.46 195.531 233.566 195.81 230.683C196.074 228.481 196.347 225.481 196.627 221.857C197.108 217.537 197.24 213.188 197.021 208.853C195.929 194.132 189.662 187.023 178.898 187.023C167.667 187.023 161.546 194.132 160.098 208.853C159.789 213.187 159.825 217.536 160.205 221.857C160.408 225.533 160.637 228.481 160.614 230.683C160.591 232.885 160.805 235.59 161.008 239.352C161.098 242.142 160.907 244.936 160.438 247.692C160.122 249.86 159.608 251.996 158.903 254.073C158.441 255.953 157.437 257.66 156.018 258.98C154.595 259.792 152.988 260.217 151.358 260.211C143.289 260.211 137.552 246.964 134.166 220.228C133.321 212.004 133.083 203.722 133.456 195.45C133.83 190.048 133.724 184.629 133.14 179.256C132.679 175.337 130.783 169.945 127.917 163.061C125.014 156.553 122.606 149.83 120.713 142.948C119.078 136.46 118.894 129.675 120.177 123.078C122.984 112.275 128.428 105.427 137.012 102.479C142.909 100.26 150.492 100.52 159.463 103.45C168.434 106.38 175.298 107.629 179.704 107.629C184.11 107.629 190.481 106.398 199.79 103.45C209.099 100.502 216.496 100.26 222.572 102.479C230.853 105.427 236.172 112.275 238.255 123.078Z" fill="white"/>
</svg>
