<svg width="366" height="339" viewBox="0 0 366 339" fill="none" xmlns="http://www.w3.org/2000/svg">
<path d="M277.261 42.0424C302.76 59.8356 326.889 78.4499 343.615 103.634C360.34 129.092 369.937 161.12 364.453 189.863C358.969 218.879 338.131 244.611 316.196 269.247C294.535 293.61 271.503 316.878 243.262 328.375C214.746 339.873 181.021 339.599 140.441 338.504C99.8612 337.409 52.7008 335.219 32.4109 310.582C12.121 285.946 18.7015 238.862 13.7661 194.242C8.8307 149.623 -7.6206 107.74 4.1695 77.0812C15.9596 46.4223 55.7169 27.2604 92.7323 14.6683C129.474 2.34996 163.747 -3.39861 194.182 2.07621C224.617 7.55103 251.761 24.2492 277.261 42.0424Z" fill="#EFBC3F"/>
<path d="M177.212 217.988C204.504 217.988 226.628 196.279 226.628 169.5C226.628 142.72 204.504 121.011 177.212 121.011C149.92 121.011 127.796 142.72 127.796 169.5C127.796 196.279 149.92 217.988 177.212 217.988Z" fill="white"/>
<path d="M188.242 116.17H188.035C180.954 114.176 173.444 114.176 166.362 116.17H166.078L177.186 80L188.242 116.17Z" fill="white"/>
<path d="M188.24 222.83H188.033C180.952 224.824 173.442 224.824 166.36 222.83H166.076L177.184 259L188.24 222.83Z" fill="white"/>
<path d="M122.862 158.576V158.779C120.83 165.727 120.83 173.097 122.862 180.045V180.222L86 169.501L122.862 158.576Z" fill="white"/>
<path d="M231.56 158.576V158.779C233.592 165.727 233.592 173.097 231.56 180.045V180.222L268.422 169.399L231.56 158.576Z" fill="white"/>
<path d="M146.576 124.127L146.447 124.279C139.997 127.778 134.68 132.987 131.103 139.31L130.974 139.437L112.711 106.207L146.576 124.127Z" fill="white"/>
<path d="M223.449 199.535L223.294 199.687C221.516 202.838 219.299 205.73 216.707 208.28C214.1 210.813 211.154 212.988 207.95 214.743L207.821 214.87L241.687 232.79L223.449 199.535Z" fill="white"/>
<path d="M130.974 199.537L131.129 199.689C132.891 202.837 135.091 205.728 137.664 208.282C140.263 210.815 143.2 212.989 146.395 214.745L146.525 214.872L112.711 232.792L130.974 199.537Z" fill="white"/>
<path d="M207.823 124.13L207.978 124.282C211.186 126.012 214.133 128.17 216.735 130.695C219.316 133.245 221.532 136.127 223.322 139.262L223.451 139.389L241.714 106.159L207.823 124.13Z" fill="white"/>
</svg>
