<svg width="366" height="339" viewBox="0 0 366 339" fill="none" xmlns="http://www.w3.org/2000/svg">
<path d="M277.261 42.0424C302.76 59.8356 326.889 78.4499 343.615 103.634C360.34 129.092 369.937 161.12 364.453 189.863C358.969 218.879 338.131 244.611 316.196 269.247C294.535 293.61 271.503 316.878 243.262 328.375C214.746 339.873 181.021 339.599 140.441 338.504C99.8612 337.409 52.7008 335.219 32.4109 310.582C12.121 285.946 18.7015 238.862 13.7661 194.242C8.8307 149.623 -7.6206 107.74 4.1695 77.0812C15.9596 46.4223 55.7169 27.2604 92.7323 14.6683C129.474 2.34996 163.747 -3.39861 194.182 2.07621C224.617 7.55103 251.761 24.2492 277.261 42.0424Z" fill="#3B5673"/>
<path fill-rule="evenodd" clip-rule="evenodd" d="M132.79 93.877L135.435 99.4473L141.474 100.425L137.041 104.686L138.008 110.791L132.626 107.84L127.189 110.662L128.284 104.575L123.96 100.222L130.017 99.392L132.79 93.877Z" fill="white"/>
<path fill-rule="evenodd" clip-rule="evenodd" d="M114.548 169.504L117.193 175.093L123.232 176.033L118.798 180.313L119.765 186.418L114.384 183.467L108.947 186.289L110.042 180.202L105.718 175.831L111.775 175.019L114.548 169.504Z" fill="white"/>
<path fill-rule="evenodd" clip-rule="evenodd" d="M105.827 139.067L106.52 142.922L110.059 144.527L106.648 146.39L106.228 150.3L103.419 147.589L99.6238 148.401L101.302 144.859L99.3684 141.447L103.218 141.982L105.827 139.067Z" fill="white"/>
<path fill-rule="evenodd" clip-rule="evenodd" d="M131.97 138.203L141.292 139.771L147.86 132.891L149.283 142.353L157.785 146.54L149.319 150.819L148.006 160.281L141.365 153.475L132.061 155.135L136.403 146.651L131.97 138.203Z" fill="white"/>
<path fill-rule="evenodd" clip-rule="evenodd" d="M239.425 157.124C243.493 200.69 211.111 239.443 166.906 243.685C154.067 244.971 141.11 243.126 129.121 238.306C117.132 233.486 106.46 225.83 98 215.981C103.594 216.6 109.237 216.637 114.839 216.092C158.97 211.868 191.462 173.115 187.358 129.548C185.856 113.445 179.414 98.2192 168.931 86C205.784 90.1132 235.868 119.201 239.425 157.124Z" fill="white"/>
</svg>
