<svg width="366" height="339" viewBox="0 0 366 339" fill="none" xmlns="http://www.w3.org/2000/svg">
<path d="M277.261 42.0424C302.76 59.8356 326.889 78.4499 343.615 103.634C360.34 129.092 369.937 161.12 364.453 189.863C358.969 218.879 338.131 244.611 316.196 269.247C294.535 293.61 271.503 316.878 243.262 328.375C214.746 339.873 181.021 339.599 140.441 338.504C99.8612 337.409 52.7008 335.219 32.4109 310.582C12.121 285.946 18.7015 238.862 13.7661 194.242C8.8307 149.623 -7.6206 107.74 4.1695 77.0812C15.9596 46.4222 55.7169 27.2604 92.7323 14.6683C129.474 2.34996 163.747 -3.39861 194.182 2.07621C224.617 7.55103 251.761 24.2492 277.261 42.0424Z" fill="#109294"/>
<path fill-rule="evenodd" clip-rule="evenodd" d="M110 169.502V196.943C110 197.717 110.308 198.459 110.855 199.006C111.402 199.554 112.144 199.861 112.918 199.861H155.956C156.73 199.861 157.472 200.169 158.019 200.716C158.566 201.263 158.874 202.006 158.874 202.78V245.503C158.874 246.277 159.181 247.02 159.729 247.567C160.276 248.114 161.018 248.422 161.792 248.422H188.538C189.312 248.422 190.054 248.114 190.602 247.567C191.149 247.02 191.456 246.277 191.456 245.503V202.78C191.456 202.397 191.532 202.017 191.678 201.663C191.825 201.309 192.04 200.987 192.311 200.716C192.582 200.445 192.904 200.23 193.258 200.083C193.612 199.937 193.991 199.861 194.374 199.861H237.481C237.866 199.864 238.248 199.791 238.605 199.646C238.961 199.5 239.286 199.286 239.559 199.015C239.833 198.743 240.05 198.42 240.198 198.065C240.346 197.709 240.422 197.328 240.422 196.943V169.502C240.422 168.722 240.112 167.974 239.56 167.422C239.009 166.871 238.261 166.561 237.481 166.561H194.374C193.601 166.561 192.858 166.253 192.311 165.706C191.764 165.158 191.456 164.416 191.456 163.642V120.919C191.456 120.145 191.149 119.402 190.602 118.855C190.054 118.308 189.312 118 188.538 118H161.861C161.087 118 160.345 118.308 159.797 118.855C159.25 119.402 158.943 120.145 158.943 120.919V163.642C158.943 164.031 158.865 164.416 158.714 164.775C158.563 165.134 158.342 165.459 158.064 165.73C157.785 166.002 157.456 166.216 157.094 166.359C156.732 166.501 156.345 166.57 155.956 166.561H112.918C112.533 166.561 112.152 166.637 111.796 166.785C111.441 166.933 111.118 167.15 110.847 167.424C110.575 167.697 110.361 168.022 110.216 168.378C110.07 168.735 109.997 169.117 110 169.502Z" fill="white"/>
</svg>
