<svg width="38" height="24" viewBox="0 0 38 24" fill="none" xmlns="http://www.w3.org/2000/svg">
<rect width="27.5932" height="16.9322" rx="1" transform="matrix(-1 0 0 1 38 0)" fill="#F2994A"/>
<path d="M38 18.993V11.6611C38 11.1088 37.5523 10.6611 37 10.6611H32.5623C31.7833 10.6611 31.3034 11.5125 31.7068 12.1789L36.1445 19.5108C36.6686 20.3767 38 20.0052 38 18.993Z" fill="#F2994A"/>
<path fill-rule="evenodd" clip-rule="evenodd" d="M28.5932 4.23535C28.5932 3.68307 28.1455 3.23535 27.5932 3.23535H2C1.44772 3.23535 1 3.68307 1 4.23535V13.8963V20.1676V22.2281C1 23.2403 2.33138 23.6119 2.8555 22.7459L4.12425 20.6498C4.30542 20.3504 4.62986 20.1676 4.97975 20.1676H27.5932C28.1455 20.1676 28.5932 19.7198 28.5932 19.1676V4.23535Z" fill="white"/>
<path d="M2.8555 22.7459L2.42775 22.487L2.8555 22.7459ZM2 3.73535H27.5932V2.73535H2V3.73535ZM1.5 13.8963V4.23535H0.5V13.8963H1.5ZM1.5 20.1676V13.8963H0.5V20.1676H1.5ZM1.5 22.2281V20.1676H0.5V22.2281H1.5ZM3.6965 20.3909L2.42775 22.487L3.28325 23.0048L4.552 20.9087L3.6965 20.3909ZM27.5932 19.6676H4.97975V20.6676H27.5932V19.6676ZM28.0932 4.23535V19.1676H29.0932V4.23535H28.0932ZM0.5 22.2281C0.5 23.7464 2.49708 24.3037 3.28325 23.0048L2.42775 22.487C2.16569 22.92 1.5 22.7342 1.5 22.2281H0.5ZM27.5932 20.6676C28.4216 20.6676 29.0932 19.996 29.0932 19.1676H28.0932C28.0932 19.4437 27.8694 19.6676 27.5932 19.6676V20.6676ZM27.5932 3.73535C27.8694 3.73535 28.0932 3.95921 28.0932 4.23535H29.0932C29.0932 3.40692 28.4216 2.73535 27.5932 2.73535V3.73535ZM4.552 20.9087C4.64259 20.759 4.80481 20.6676 4.97975 20.6676V19.6676C4.45492 19.6676 3.96826 19.9419 3.6965 20.3909L4.552 20.9087ZM2 2.73535C1.17157 2.73535 0.5 3.40692 0.5 4.23535H1.5C1.5 3.95921 1.72386 3.73535 2 3.73535V2.73535Z" fill="#F2994A"/>
</svg>
