<svg width="144" height="94" viewBox="0 0 144 94" fill="none" xmlns="http://www.w3.org/2000/svg">
<mask id="mask0" mask-type="alpha" maskUnits="userSpaceOnUse" x="0" y="0" width="144" height="94">
<rect width="144" height="94" fill="#C4C4C4"/>
</mask>
<g mask="url(#mask0)">
<path d="M33.1294 32.2017C27.4181 32.2017 23.8553 35.8092 22.4409 43.0244H36.1372V46.4888H22.0649L22.0112 48.0195V49.7383L22.0649 50.9468H34.499V54.4111H22.4946C23.1571 57.6338 24.3924 60.1313 26.2007 61.9038C28.0269 63.6584 30.4618 64.5356 33.5054 64.5356C36.2983 64.5356 39.0645 63.9448 41.8037 62.7632V66.7915C39.1898 67.9552 36.3521 68.5371 33.2905 68.5371C29.0474 68.5371 25.6278 67.3376 23.0317 64.9385C20.4536 62.5215 18.7528 59.0124 17.9292 54.4111H13.4712V50.9468H17.5532L17.4995 49.8188V48.6372L17.5532 46.4888H13.4712V43.0244H17.8755C18.5737 38.3516 20.2298 34.7082 22.8438 32.0942C25.4577 29.4803 28.8862 28.1733 33.1294 28.1733C36.728 28.1733 40.0044 29.0417 42.9585 30.7783L41.0518 34.5112C38.0798 32.9715 35.439 32.2017 33.1294 32.2017Z" fill="#A9D18E"/>
<path d="M77.1294 32.2017C71.4181 32.2017 67.8553 35.8092 66.4409 43.0244H80.1372V46.4888H66.0649L66.0112 48.0195V49.7383L66.0649 50.9468H78.499V54.4111H66.4946C67.1571 57.6338 68.3924 60.1313 70.2007 61.9038C72.0269 63.6584 74.4618 64.5356 77.5054 64.5356C80.2983 64.5356 83.0645 63.9448 85.8037 62.7632V66.7915C83.1898 67.9552 80.3521 68.5371 77.2905 68.5371C73.0474 68.5371 69.6278 67.3376 67.0317 64.9385C64.4536 62.5215 62.7528 59.0124 61.9292 54.4111H57.4712V50.9468H61.5532L61.4995 49.8188V48.6372L61.5532 46.4888H57.4712V43.0244H61.8755C62.5737 38.3516 64.2298 34.7082 66.8438 32.0942C69.4577 29.4803 72.8862 28.1733 77.1294 28.1733C80.728 28.1733 84.0044 29.0417 86.9585 30.7783L85.0518 34.5112C82.0798 32.9715 79.439 32.2017 77.1294 32.2017Z" fill="#BDBDBD"/>
<path d="M121.129 32.2017C115.418 32.2017 111.855 35.8092 110.441 43.0244H124.137V46.4888H110.065L110.011 48.0195V49.7383L110.065 50.9468H122.499V54.4111H110.495C111.157 57.6338 112.392 60.1313 114.201 61.9038C116.027 63.6584 118.462 64.5356 121.505 64.5356C124.298 64.5356 127.064 63.9448 129.804 62.7632V66.7915C127.19 67.9552 124.352 68.5371 121.291 68.5371C117.047 68.5371 113.628 67.3376 111.032 64.9385C108.454 62.5215 106.753 59.0124 105.929 54.4111H101.471V50.9468H105.553L105.5 49.8188V48.6372L105.553 46.4888H101.471V43.0244H105.875C106.574 38.3516 108.23 34.7082 110.844 32.0942C113.458 29.4803 116.886 28.1733 121.129 28.1733C124.728 28.1733 128.004 29.0417 130.958 30.7783L129.052 34.5112C126.08 32.9715 123.439 32.2017 121.129 32.2017Z" fill="#BDBDBD"/>
</g>
</svg>
