<svg width="43" height="41" viewBox="0 0 43 41" fill="none" xmlns="http://www.w3.org/2000/svg">
<path fill-rule="evenodd" clip-rule="evenodd" d="M0.423827 16.1905V24.8167C0.423827 25.0601 0.523961 25.2935 0.702202 25.4655C0.880442 25.6376 1.12219 25.7343 1.37426 25.7343H15.3912C15.6433 25.7343 15.885 25.8309 16.0633 26.003C16.2415 26.1751 16.3417 26.4085 16.3417 26.6518V40.0825C16.3417 40.3258 16.4418 40.5592 16.62 40.7313C16.7983 40.9033 17.04 41 17.2921 41H26.0031C26.2552 41 26.4969 40.9033 26.6752 40.7313C26.8534 40.5592 26.9535 40.3258 26.9535 40.0825V26.6518C26.9535 26.5313 26.9781 26.412 27.0259 26.3007C27.0737 26.1894 27.1437 26.0882 27.2319 26.003C27.3202 25.9178 27.4249 25.8502 27.5403 25.8041C27.6556 25.758 27.7792 25.7343 27.904 25.7343H41.9434C42.0688 25.7352 42.1932 25.7122 42.3094 25.6665C42.4256 25.6208 42.5312 25.5534 42.6203 25.4681C42.7093 25.3828 42.78 25.2813 42.8283 25.1695C42.8765 25.0577 42.9013 24.9378 42.9013 24.8167V16.1905C42.9013 15.9452 42.8004 15.71 42.6207 15.5366C42.4411 15.3632 42.1975 15.2657 41.9434 15.2657H27.904C27.6519 15.2657 27.4102 15.1691 27.2319 14.997C27.0537 14.8249 26.9535 14.5915 26.9535 14.3482V0.917533C26.9535 0.674188 26.8534 0.44081 26.6752 0.268739C26.4969 0.0966684 26.2552 0 26.0031 0L17.3145 0C17.0625 0 16.8207 0.0966684 16.6425 0.268739C16.4642 0.44081 16.3641 0.674188 16.3641 0.917533V14.3482C16.3641 14.4705 16.3388 14.5916 16.2897 14.7044C16.2405 14.8172 16.1685 14.9193 16.0778 15.0048C15.9872 15.0903 15.8798 15.1574 15.7618 15.2022C15.6439 15.247 15.5179 15.2686 15.3912 15.2657H1.37426C1.24881 15.2657 1.12461 15.2897 1.00881 15.3363C0.893004 15.3828 0.787896 15.451 0.699542 15.537C0.611188 15.623 0.541336 15.725 0.494015 15.8371C0.446694 15.9493 0.422839 16.0694 0.423827 16.1905Z" fill="white"/>
</svg>
