<svg width="92" height="82" viewBox="0 0 92 82" fill="none" xmlns="http://www.w3.org/2000/svg">
<mask id="path-1-inside-1" fill="white">
<path fill-rule="evenodd" clip-rule="evenodd" d="M90.5741 46.835C91.4647 46.835 91.911 45.7584 91.2816 45.1283L46.4955 0.293281C46.1049 -0.097759 45.4712 -0.0977609 45.0805 0.293279L0.294512 45.1283C-0.334922 45.7584 0.111362 46.835 1.002 46.835H12.288C12.8403 46.835 13.288 47.2827 13.288 47.835V80.585C13.288 81.1373 13.7358 81.585 14.288 81.585H78.288C78.8403 81.585 79.288 81.1373 79.288 80.585V47.835C79.288 47.2827 79.7358 46.835 80.288 46.835H90.5741Z"/>
</mask>
<path d="M0.294512 45.1283L3.12448 47.9552L0.294512 45.1283ZM91.2816 45.1283L94.1115 42.3014L91.2816 45.1283ZM46.4955 0.293281L49.3255 -2.5336L46.4955 0.293281ZM45.0805 0.293279L42.2506 -2.5336L45.0805 0.293279ZM43.6656 3.12016L88.4516 47.9552L94.1115 42.3014L49.3255 -2.5336L43.6656 3.12016ZM3.12448 47.9552L47.9105 3.12016L42.2506 -2.5336L-2.53546 42.3014L3.12448 47.9552ZM12.288 42.835H1.002V50.835H12.288V42.835ZM17.288 80.585V47.835H9.28804V80.585H17.288ZM78.288 77.585H14.288V85.585H78.288V77.585ZM75.288 47.835V80.585H83.288V47.835H75.288ZM90.5741 42.835H80.288V50.835H90.5741V42.835ZM83.288 47.835C83.288 49.4919 81.9449 50.835 80.288 50.835V42.835C77.5266 42.835 75.288 45.0736 75.288 47.835H83.288ZM78.288 85.585C81.0495 85.585 83.288 83.3464 83.288 80.585H75.288C75.288 78.9282 76.6312 77.585 78.288 77.585V85.585ZM9.28804 80.585C9.28804 83.3464 11.5266 85.585 14.288 85.585V77.585C15.9449 77.585 17.288 78.9282 17.288 80.585H9.28804ZM12.288 50.835C10.6312 50.835 9.28804 49.4919 9.28804 47.835H17.288C17.288 45.0736 15.0495 42.835 12.288 42.835V50.835ZM-2.53546 42.3014C-5.68262 45.452 -3.45122 50.835 1.002 50.835V42.835C3.67394 42.835 5.01278 46.0648 3.12448 47.9552L-2.53546 42.3014ZM88.4516 47.9552C86.5633 46.0648 87.9022 42.835 90.5741 42.835V50.835C95.0273 50.835 97.2587 45.452 94.1115 42.3014L88.4516 47.9552ZM49.3255 -2.5336C47.3725 -4.48879 44.2036 -4.48881 42.2506 -2.5336L47.9105 3.12016C46.7387 4.29329 44.8374 4.29327 43.6656 3.12016L49.3255 -2.5336Z" fill="#3B5673" mask="url(#path-1-inside-1)"/>
<path fill-rule="evenodd" clip-rule="evenodd" d="M30 48.2416V54.7639C30 54.9479 30.0731 55.1243 30.2032 55.2544C30.3333 55.3845 30.5097 55.4576 30.6936 55.4576H40.9232C41.1072 55.4576 41.2836 55.5307 41.4137 55.6608C41.5438 55.7909 41.6168 55.9674 41.6168 56.1514V66.3063C41.6168 66.4902 41.6899 66.6667 41.82 66.7968C41.9501 66.9269 42.1265 67 42.3105 67H48.6677C48.8517 67 49.0281 66.9269 49.1582 66.7968C49.2883 66.6667 49.3614 66.4902 49.3614 66.3063V56.1514C49.3614 56.0603 49.3793 55.9701 49.4142 55.8859C49.449 55.8017 49.5001 55.7252 49.5645 55.6608C49.6289 55.5964 49.7054 55.5453 49.7896 55.5104C49.8737 55.4756 49.9639 55.4576 50.055 55.4576H60.3009C60.3925 55.4583 60.4833 55.4409 60.568 55.4064C60.6528 55.3718 60.7299 55.3209 60.7949 55.2564C60.8599 55.1919 60.9115 55.1152 60.9467 55.0306C60.9819 54.9461 61 54.8554 61 54.7639V48.2416C61 48.0561 60.9264 47.8783 60.7953 47.7472C60.6642 47.616 60.4863 47.5424 60.3009 47.5424H50.055C49.871 47.5424 49.6946 47.4693 49.5645 47.3392C49.4344 47.2091 49.3614 47.0326 49.3614 46.8486V36.6937C49.3614 36.5098 49.2883 36.3333 49.1582 36.2032C49.0281 36.0731 48.8517 36 48.6677 36H42.3268C42.1429 36 41.9664 36.0731 41.8364 36.2032C41.7063 36.3333 41.6332 36.5098 41.6332 36.6937V46.8486C41.6332 46.9411 41.6148 47.0327 41.5789 47.118C41.543 47.2032 41.4905 47.2804 41.4243 47.3451C41.3581 47.4097 41.2797 47.4605 41.1937 47.4944C41.1076 47.5282 41.0157 47.5446 40.9232 47.5424H30.6936C30.6021 47.5424 30.5115 47.5605 30.4269 47.5957C30.3424 47.6309 30.2657 47.6825 30.2012 47.7475C30.1368 47.8125 30.0858 47.8896 30.0512 47.9744C30.0167 48.0592 29.9993 48.15 30 48.2416Z" fill="#3B5673"/>
</svg>
