<svg width="30" height="55" viewBox="0 0 30 55" fill="none" xmlns="http://www.w3.org/2000/svg">
<path d="M14.8828 13.1632C16.66 13.1932 18.3765 12.5174 19.6562 11.2838C20.9359 10.0503 21.6743 8.35973 21.7096 6.58268C21.6743 4.80563 20.9359 3.11506 19.6562 1.88153C18.3765 0.648004 16.66 -0.0278424 14.8828 0.00213151C13.9982 -0.0201629 13.1179 0.13262 12.2925 0.451698C11.4671 0.770775 10.7129 1.24985 10.0733 1.86139C9.43367 2.47292 8.92124 3.20486 8.56545 4.0151C8.20967 4.82535 8.01754 5.69793 8.00012 6.58268C8.01754 7.46743 8.20967 8.34001 8.56545 9.15026C8.92124 9.9605 9.43367 10.6924 10.0733 11.304C10.7129 11.9155 11.4671 12.3946 12.2925 12.7137C13.1179 13.0327 13.9982 13.1855 14.8828 13.1632Z" fill="white"/>
<path d="M22.4912 14.7889V28.0843C22.425 28.4841 22.2085 28.8435 21.886 29.089C21.5636 29.3344 21.1596 29.4474 20.7565 29.4049H8.87127C8.46775 29.4502 8.06229 29.3383 7.73921 29.0923C7.41613 28.8464 7.20029 28.4853 7.1366 28.0843L7.1366 14.7889C7.20282 14.3883 7.41887 14.0278 7.74097 13.7805C8.06306 13.5332 8.46712 13.4176 8.87127 13.4571H10.8521L11.1991 13.4571C12.1679 14.3965 13.4644 14.9219 14.8139 14.9219C16.1634 14.9219 17.4599 14.3965 18.4287 13.4571H18.7757H20.7565C21.1622 13.4092 21.5706 13.5215 21.8947 13.7703C22.2187 14.0191 22.4328 14.3846 22.4912 14.7889Z" fill="white"/>
<path d="M20.5664 30.334H8.44612C8.08994 30.334 7.74835 30.4755 7.4965 30.7273C7.24464 30.9792 7.10315 31.3208 7.10315 31.677V36.1535C7.10315 36.5097 7.24464 36.8513 7.4965 37.1031C7.74835 37.355 8.08994 37.4965 8.44612 37.4965H20.5664C20.9226 37.4965 21.2642 37.355 21.516 37.1031C21.7679 36.8513 21.9094 36.5097 21.9094 36.1535V31.677C21.9094 31.3208 21.7679 30.9792 21.516 30.7273C21.2642 30.4755 20.9226 30.334 20.5664 30.334Z" fill="white"/>
<path d="M10.2927 31.979H10.1696C9.76598 31.979 9.36632 32.0587 8.99355 32.2135C8.62078 32.3683 8.28224 32.5952 7.99734 32.8811C7.71245 33.167 7.48681 33.5064 7.33337 33.8797C7.17993 34.2531 7.1017 34.653 7.10317 35.0566L7.10317 51.9221C7.1017 52.3257 7.17993 52.7257 7.33337 53.099C7.48681 53.4723 7.71245 53.8117 7.99734 54.0976C8.28224 54.3836 8.62078 54.6104 8.99355 54.7652C9.36632 54.9201 9.76598 54.9997 10.1696 54.9997H10.2927C11.107 54.9968 11.887 54.6712 12.4617 54.0944C13.0365 53.5175 13.3592 52.7364 13.3592 51.9221V35.0566C13.3592 34.2423 13.0365 33.4612 12.4617 32.8844C11.887 32.3075 11.107 31.982 10.2927 31.979Z" fill="white"/>
<path d="M18.832 31.9792H18.7089C17.9004 31.9909 17.1291 32.3204 16.5616 32.8963C15.994 33.4722 15.6759 34.2483 15.676 35.0568V51.9223C15.676 52.7366 15.9987 53.5177 16.5735 54.0946C17.1482 54.6714 17.9282 54.997 18.7425 54.9999H18.8656C19.6818 54.9999 20.4646 54.6757 21.0418 54.0985C21.619 53.5213 21.9432 52.7385 21.9432 51.9223V35.0568C21.9432 34.6498 21.8625 34.2469 21.7058 33.8713C21.549 33.4957 21.3193 33.1549 21.03 32.8686C20.7406 32.5824 20.3974 32.3564 20.0201 32.2038C19.6428 32.0511 19.239 31.9747 18.832 31.9792Z" fill="white"/>
<path d="M1.0035 33.6353C0.547941 33.2939 0.222171 32.8075 0.0797884 32.2563C-0.0625944 31.7051 -0.0131094 31.1218 0.220102 30.6025L7.02448 14.789C7.09496 14.5389 7.2218 14.3083 7.39526 14.1148C7.56872 13.9213 7.7842 13.7702 8.02515 13.6729C8.26611 13.5757 8.52614 13.5349 8.78529 13.5538C9.04444 13.5727 9.29583 13.6506 9.52016 13.7818C9.97662 14.1251 10.3028 14.6134 10.4452 15.1665C10.5875 15.7197 10.5376 16.3048 10.3036 16.8258L3.49919 32.6952C3.42102 32.9395 3.28862 33.163 3.11189 33.3489C2.93516 33.5348 2.71868 33.6783 2.47865 33.7687C2.23862 33.8591 1.98125 33.8941 1.72579 33.871C1.47034 33.8479 1.22342 33.7673 1.0035 33.6353Z" fill="white"/>
<path d="M28.6021 33.635C29.0558 33.292 29.3793 32.805 29.5196 32.2539C29.66 31.7028 29.6087 31.1203 29.3743 30.6021L22.57 14.7887C22.4949 14.5421 22.3645 14.316 22.1886 14.1275C22.0127 13.9391 21.796 13.7934 21.5552 13.7016C21.3143 13.6098 21.0557 13.5743 20.799 13.5979C20.5423 13.6214 20.2944 13.7033 20.0743 13.8374C19.6178 14.1807 19.2916 14.6691 19.1493 15.2222C19.0069 15.7753 19.0569 16.3605 19.2909 16.8815L26.1064 32.6949C26.1828 32.9406 26.3142 33.1655 26.4906 33.3527C26.667 33.5398 26.8838 33.6842 27.1245 33.7749C27.3652 33.8656 27.6235 33.9001 27.8795 33.8759C28.1356 33.8516 28.3827 33.7692 28.6021 33.635Z" fill="white"/>
</svg>
