<svg width="144" height="94" viewBox="0 0 144 94" fill="none" xmlns="http://www.w3.org/2000/svg">
<mask id="mask0" mask-type="alpha" maskUnits="userSpaceOnUse" x="0" y="0" width="144" height="94">
<rect width="144" height="94" fill="#C4C4C4"/>
</mask>
<g mask="url(#mask0)">
<path d="M115.126 74.085C115.173 73.94 115.205 73.787 115.205 73.626V20.499C115.205 20.337 115.173 20.183 115.125 20.037C115.118 20.017 115.114 19.997 115.106 19.977C115.042 19.806 114.948 19.652 114.83 19.517C114.822 19.508 114.821 19.497 114.813 19.488C114.808 19.483 114.802 19.481 114.797 19.476C114.671 19.342 114.522 19.234 114.355 19.153C114.342 19.147 114.332 19.139 114.319 19.133C114.161 19.062 113.989 19.022 113.808 19.01C113.79 19.009 113.773 19.005 113.755 19.005C113.738 19.004 113.723 19 113.706 19H30.501C30.484 19 30.468 19.004 30.451 19.005C30.435 19.006 30.419 19.009 30.403 19.01C30.22 19.022 30.045 19.063 29.885 19.135C29.875 19.139 29.867 19.146 29.857 19.15C29.687 19.231 29.536 19.341 29.409 19.477C29.404 19.482 29.398 19.483 29.393 19.488C29.385 19.496 29.384 19.507 29.376 19.516C29.258 19.651 29.163 19.806 29.099 19.977C29.091 19.997 29.087 20.017 29.08 20.038C29.032 20.184 29 20.338 29 20.5V73.628C29 73.792 29.033 73.948 29.082 74.096C29.089 74.116 29.093 74.135 29.1 74.155C29.165 74.327 29.261 74.482 29.38 74.617C29.387 74.625 29.389 74.635 29.396 74.643C29.402 74.65 29.41 74.654 29.417 74.661C29.466 74.712 29.52 74.757 29.576 74.801C29.601 74.82 29.623 74.843 29.649 74.861C29.715 74.907 29.786 74.944 29.859 74.978C29.877 74.986 29.893 74.999 29.911 75.006C30.092 75.083 30.291 75.127 30.5 75.127H113.704C113.913 75.127 114.112 75.084 114.293 75.006C114.321 74.994 114.347 74.976 114.374 74.962C114.436 74.931 114.498 74.899 114.555 74.86C114.585 74.839 114.612 74.812 114.641 74.789C114.692 74.748 114.742 74.707 114.786 74.66C114.794 74.652 114.803 74.646 114.811 74.638C114.819 74.629 114.821 74.617 114.829 74.608C114.946 74.474 115.04 74.32 115.104 74.15C115.114 74.128 115.119 74.107 115.126 74.085ZM32.001 23.901L57.248 46.962L32.001 70.207V23.901ZM83.747 45.832C83.643 45.9 83.533 45.957 83.446 46.053C83.413 46.089 83.402 46.136 83.373 46.174L72.103 56.468L34.367 21.999H109.839L83.747 45.832ZM59.472 48.993L71.091 59.606C71.378 59.868 71.74 59.999 72.103 59.999C72.466 59.999 72.828 59.868 73.114 59.606L84.589 49.125L109.832 72.127H34.345L59.472 48.993ZM86.814 47.093L112.205 23.901V70.231L86.814 47.093Z" fill="#EFBC3F"/>
</g>
</svg>
