<svg width="39" height="41" viewBox="0 0 39 41" fill="none" xmlns="http://www.w3.org/2000/svg">
<path fill-rule="evenodd" clip-rule="evenodd" d="M9.79452 2.0332L10.5098 3.47113L12.1426 3.72348L10.9439 4.82335L11.2053 6.39936L9.75012 5.63754L8.28011 6.36603L8.57609 4.79478L7.40698 3.67111L9.04471 3.45685L9.79452 2.0332Z" fill="white"/>
<path fill-rule="evenodd" clip-rule="evenodd" d="M4.86172 21.5547L5.57699 22.9974L7.20979 23.2402L6.01109 24.3448L6.27254 25.9208L4.81732 25.159L3.34731 25.8875L3.64329 24.3163L2.47418 23.1878L4.11191 22.9783L4.86172 21.5547Z" fill="white"/>
<path fill-rule="evenodd" clip-rule="evenodd" d="M2.50352 13.6982L2.69097 14.6934L3.64796 15.1076L2.7255 15.5885L2.61204 16.5979L1.85237 15.898L0.826324 16.1075L1.28015 15.1933L0.757263 14.3125L1.79811 14.4505L2.50352 13.6982Z" fill="white"/>
<path fill-rule="evenodd" clip-rule="evenodd" d="M9.57263 13.4748L12.0934 13.8795L13.8692 12.1035L14.254 14.5461L16.5527 15.6269L14.2638 16.7315L13.9087 19.1741L12.1131 17.4172L9.5973 17.8457L10.7713 15.6555L9.57263 13.4748Z" fill="white"/>
<path fill-rule="evenodd" clip-rule="evenodd" d="M38.6276 18.3598C39.7277 29.6061 30.9717 39.6097 19.0192 40.7048C15.5476 41.0366 12.0441 40.5604 8.80233 39.3161C5.5606 38.0718 2.67508 36.0956 0.387573 33.5532C1.90027 33.7129 3.42595 33.7225 4.94067 33.5818C16.8734 32.4914 25.659 22.4878 24.5491 11.2415C24.143 7.08467 22.4011 3.15424 19.5668 0C29.5313 1.06178 37.6657 8.57043 38.6276 18.3598Z" fill="white"/>
</svg>
