<svg width="144" height="94" viewBox="0 0 144 94" fill="none" xmlns="http://www.w3.org/2000/svg">
<mask id="mask0" mask-type="alpha" maskUnits="userSpaceOnUse" x="0" y="0" width="144" height="94">
<rect width="144" height="94" fill="#C4C4C4"/>
</mask>
<g mask="url(#mask0)">
<path d="M136.981 42.648C135.901 42.648 134.312 43.083 132.877 45.154C132.815 45.244 132.762 45.34 132.721 45.441C131.939 47.356 130.336 48.541 129.3 48.541C128.446 48.541 127.466 47.548 126.706 45.93V23.94C126.706 23.111 126.034 22.44 125.206 22.44H103.373C101.596 21.667 100.504 20.643 100.504 19.733C100.504 18.881 101.497 17.903 103.116 17.142C103.287 17.107 103.455 17.042 103.61 16.945C105.473 15.782 106.499 14.234 106.499 12.586C106.499 8.832 101.277 6 94.3532 6C87.4322 6 82.2122 8.832 82.2122 12.586C82.2122 13.609 82.6022 15.071 84.3682 16.437C84.5332 16.701 84.7782 16.911 85.0732 17.031C87.0072 17.82 88.2072 18.9 88.2072 19.849C88.2072 20.703 87.2132 21.681 85.5912 22.44H63.5042C62.6762 22.44 62.0042 23.111 62.0042 23.94V46.237C61.9862 46.475 62.0262 46.718 62.1242 46.944C63.4402 49.969 65.3822 51.635 67.5932 51.635C69.7772 51.635 71.7512 49.937 73.0492 46.96C73.0582 46.948 73.0662 46.936 73.0742 46.923C73.6412 46.048 74.2772 45.547 74.8202 45.547C76.2822 45.547 78.4062 49.109 78.4062 54.691C78.4062 60.274 76.2822 63.836 74.8202 63.836C74.3042 63.836 73.7012 63.38 73.1502 62.578C71.8362 59.583 69.9042 57.935 67.7072 57.935C65.4452 57.935 63.4052 59.757 62.1112 62.934C62.0232 63.15 61.9882 63.377 62.0042 63.6V85.641C62.0042 86.47 62.6762 87.141 63.5042 87.141H85.9132C86.1192 87.141 86.3222 87.099 86.5122 87.016C89.5392 85.699 91.2072 83.757 91.2072 81.549C91.2072 79.403 89.5652 77.457 86.6822 76.157C86.6282 76.109 86.5712 76.063 86.5092 76.022C86.0232 75.696 85.2082 75.043 85.2082 74.325C85.2082 72.863 88.7702 70.74 94.3532 70.74C99.9332 70.74 103.495 72.864 103.495 74.325C103.495 74.817 103.09 75.381 102.369 75.904C102.31 75.921 102.253 75.942 102.196 75.967C99.1702 77.282 97.5042 79.224 97.5042 81.433C97.5042 83.728 99.2802 85.716 102.505 87.029C102.685 87.102 102.876 87.14 103.07 87.14H125.206C126.034 87.14 126.706 86.469 126.706 85.64V63.71C127.481 61.933 128.505 60.841 129.413 60.841C130.175 60.841 131.693 61.915 132.595 63.932C132.635 64.04 132.687 64.144 132.751 64.241C133.897 65.978 135.399 66.935 136.981 66.935C140.736 66.935 143.567 61.714 143.567 54.791C143.567 47.868 140.735 42.648 136.981 42.648ZM136.981 63.935C136.472 63.935 135.875 63.487 135.33 62.701C134.046 59.834 131.626 57.842 129.413 57.842C127.15 57.842 125.11 59.665 123.816 62.843C123.743 63.023 123.706 63.215 123.706 63.408V84.141H103.373C101.596 83.366 100.504 82.341 100.504 81.434C100.504 80.597 101.461 79.639 103.026 78.886C103.236 78.859 103.444 78.787 103.633 78.668C105.479 77.508 106.494 75.966 106.494 74.326C106.494 70.572 101.274 67.741 94.3522 67.741C87.4282 67.741 82.2072 70.572 82.2072 74.326C82.2072 75.358 82.6042 76.842 84.4222 78.219C84.5852 78.446 84.8112 78.625 85.0732 78.733C87.0062 79.521 88.2062 80.6 88.2062 81.55C88.2062 82.402 87.2112 83.381 85.5902 84.141H65.0032V63.795C65.7772 62.024 66.8002 60.936 67.7062 60.936C68.5792 60.936 69.5842 61.978 70.3512 63.668C70.3912 63.803 70.4502 63.933 70.5282 64.054C71.6862 65.848 73.2102 66.837 74.8202 66.837C78.5752 66.837 81.4062 61.616 81.4062 54.692C81.4062 47.769 78.5752 42.548 74.8202 42.548C73.3162 42.548 71.8892 43.407 70.7702 44.977C70.6152 45.123 70.4902 45.302 70.4062 45.507C69.6212 47.438 68.5432 48.637 67.5932 48.637C66.7402 48.637 65.7632 47.647 65.0042 46.033V25.442H85.9132C86.1182 25.442 86.3222 25.4 86.5112 25.318C89.5392 24.004 91.2072 22.062 91.2072 19.851C91.2072 17.732 89.6032 15.806 86.7802 14.504C86.7092 14.431 86.6292 14.365 86.5422 14.307C85.6962 13.745 85.2122 13.119 85.2122 12.587C85.2122 11.125 88.7732 9.001 94.3532 9.001C99.9362 9.001 103.499 11.125 103.499 12.587C103.499 13.102 103.056 13.694 102.271 14.237C102.246 14.247 102.22 14.257 102.195 14.268C99.1702 15.585 97.5042 17.527 97.5042 19.734C97.5042 21.999 99.3272 24.039 102.506 25.33C102.685 25.403 102.877 25.44 103.07 25.44H123.706V46.252C123.706 46.458 123.748 46.662 123.831 46.851C125.146 49.875 127.089 51.54 129.3 51.54C131.708 51.54 134.206 49.576 135.428 46.743C135.763 46.286 136.346 45.647 136.982 45.647C138.444 45.647 140.568 49.209 140.568 54.791C140.568 60.373 138.442 63.935 136.981 63.935Z" fill="#F2826D"/>
<path d="M74.9812 42.648C73.9012 42.648 72.3122 43.083 70.8772 45.154C70.8152 45.244 70.7622 45.34 70.7212 45.441C69.9392 47.356 68.3362 48.541 67.3002 48.541C66.4462 48.541 65.4662 47.548 64.7062 45.93V23.94C64.7062 23.111 64.0342 22.44 63.2062 22.44H41.3732C39.5962 21.667 38.5042 20.643 38.5042 19.733C38.5042 18.881 39.4972 17.903 41.1162 17.142C41.2872 17.107 41.4552 17.042 41.6102 16.945C43.4732 15.782 44.4992 14.234 44.4992 12.586C44.4992 8.832 39.2772 6 32.3532 6C25.4322 6 20.2122 8.832 20.2122 12.586C20.2122 13.609 20.6022 15.071 22.3682 16.437C22.5332 16.701 22.7782 16.911 23.0732 17.031C25.0072 17.82 26.2072 18.9 26.2072 19.849C26.2072 20.703 25.2132 21.681 23.5912 22.44H1.50419C0.67619 22.44 0.00418966 23.111 0.00418966 23.94V46.237C-0.0138103 46.475 0.0261896 46.718 0.12419 46.944C1.44019 49.969 3.38219 51.635 5.59319 51.635C7.77719 51.635 9.75119 49.937 11.0492 46.96C11.0582 46.948 11.0662 46.936 11.0742 46.923C11.6412 46.048 12.2772 45.547 12.8202 45.547C14.2822 45.547 16.4062 49.109 16.4062 54.691C16.4062 60.274 14.2822 63.836 12.8202 63.836C12.3042 63.836 11.7012 63.38 11.1502 62.578C9.83619 59.583 7.90419 57.935 5.70719 57.935C3.44519 57.935 1.40519 59.757 0.11119 62.934C0.02319 63.15 -0.0118103 63.377 0.00418966 63.6V85.641C0.00418966 86.47 0.67619 87.141 1.50419 87.141H23.9132C24.1192 87.141 24.3222 87.099 24.5122 87.016C27.5392 85.699 29.2072 83.757 29.2072 81.549C29.2072 79.403 27.5652 77.457 24.6822 76.157C24.6282 76.109 24.5712 76.063 24.5092 76.022C24.0232 75.696 23.2082 75.043 23.2082 74.325C23.2082 72.863 26.7702 70.74 32.3532 70.74C37.9332 70.74 41.4952 72.864 41.4952 74.325C41.4952 74.817 41.0902 75.381 40.3692 75.904C40.3102 75.921 40.2532 75.942 40.1962 75.967C37.1702 77.282 35.5042 79.224 35.5042 81.433C35.5042 83.728 37.2802 85.716 40.5052 87.029C40.6852 87.102 40.8762 87.14 41.0702 87.14H63.2062C64.0342 87.14 64.7062 86.469 64.7062 85.64V63.71C65.4812 61.933 66.5052 60.841 67.4132 60.841C68.1752 60.841 69.6932 61.915 70.5952 63.932C70.6352 64.04 70.6872 64.144 70.7512 64.241C71.8972 65.978 73.3992 66.935 74.9812 66.935C78.7362 66.935 81.5672 61.714 81.5672 54.791C81.5672 47.868 78.7352 42.648 74.9812 42.648ZM74.9812 63.935C74.4722 63.935 73.8752 63.487 73.3302 62.701C72.0462 59.834 69.6262 57.842 67.4132 57.842C65.1502 57.842 63.1102 59.665 61.8162 62.843C61.7432 63.023 61.7062 63.215 61.7062 63.408V84.141H41.3732C39.5962 83.366 38.5042 82.341 38.5042 81.434C38.5042 80.597 39.4612 79.639 41.0262 78.886C41.2362 78.859 41.4442 78.787 41.6332 78.668C43.4792 77.508 44.4942 75.966 44.4942 74.326C44.4942 70.572 39.2742 67.741 32.3522 67.741C25.4282 67.741 20.2072 70.572 20.2072 74.326C20.2072 75.358 20.6042 76.842 22.4222 78.219C22.5852 78.446 22.8112 78.625 23.0732 78.733C25.0062 79.521 26.2062 80.6 26.2062 81.55C26.2062 82.402 25.2112 83.381 23.5902 84.141H3.00319V63.795C3.77719 62.024 4.80019 60.936 5.70619 60.936C6.57919 60.936 7.58419 61.978 8.35119 63.668C8.39119 63.803 8.45019 63.933 8.52819 64.054C9.68619 65.848 11.2102 66.837 12.8202 66.837C16.5752 66.837 19.4062 61.616 19.4062 54.692C19.4062 47.769 16.5752 42.548 12.8202 42.548C11.3162 42.548 9.88919 43.407 8.77019 44.977C8.61519 45.123 8.49019 45.302 8.40619 45.507C7.62119 47.438 6.54319 48.637 5.59319 48.637C4.74019 48.637 3.76319 47.647 3.00419 46.033V25.442H23.9132C24.1182 25.442 24.3222 25.4 24.5112 25.318C27.5392 24.004 29.2072 22.062 29.2072 19.851C29.2072 17.732 27.6032 15.806 24.7802 14.504C24.7092 14.431 24.6292 14.365 24.5422 14.307C23.6962 13.745 23.2122 13.119 23.2122 12.587C23.2122 11.125 26.7732 9.001 32.3532 9.001C37.9362 9.001 41.4992 11.125 41.4992 12.587C41.4992 13.102 41.0562 13.694 40.2712 14.237C40.2462 14.247 40.2202 14.257 40.1952 14.268C37.1702 15.585 35.5042 17.527 35.5042 19.734C35.5042 21.999 37.3272 24.039 40.5062 25.33C40.6852 25.403 40.8772 25.44 41.0702 25.44H61.7062V46.252C61.7062 46.458 61.7482 46.662 61.8312 46.851C63.1462 49.875 65.0892 51.54 67.3002 51.54C69.7082 51.54 72.2062 49.576 73.4282 46.743C73.7632 46.286 74.3462 45.647 74.9822 45.647C76.4442 45.647 78.5682 49.209 78.5682 54.791C78.5682 60.373 76.4422 63.935 74.9812 63.935Z" fill="#EFBC3F"/>
</g>
</svg>
