<svg width="144" height="94" viewBox="0 0 144 94" fill="none" xmlns="http://www.w3.org/2000/svg">
<mask id="mask0" mask-type="alpha" maskUnits="userSpaceOnUse" x="0" y="0" width="144" height="94">
<rect width="144" height="94" fill="#C4C4C4"/>
</mask>
<g mask="url(#mask0)">
<path d="M106.465 21.9229C107.95 14.4629 108.61 4.82887 103.315 1.30187C98.0211 -2.22913 89.3831 2.08787 83.0691 6.33087C76.3061 10.8759 69.1871 17.4919 66.1401 22.0639L63.8021 25.5729C60.3361 25.4749 48.6681 25.2869 44.4411 27.0109C39.8281 28.8969 31.4231 38.8379 31.0191 42.8879C30.8731 44.3419 31.5991 45.0569 32.0421 45.3509C32.9071 45.9289 35.3281 46.1379 38.3811 46.1379C42.0531 46.1379 46.6291 45.8349 50.5211 45.5069L49.4981 47.0419C49.4931 47.0489 49.4871 47.0549 49.4821 47.0619C49.4771 47.0689 49.4751 47.0779 49.4701 47.0849L43.0321 56.7489C38.7131 63.2299 38.7271 71.6949 42.9551 78.1539L40.1861 82.3089C39.0921 83.9509 38.7311 85.9339 39.1701 87.8949C39.6041 89.8309 40.7691 91.5129 42.4491 92.6309C43.7821 93.5199 45.2871 93.9459 46.7621 93.9459C49.1501 93.9459 51.4621 92.8289 52.8491 90.7489L55.6121 86.6019C56.7941 86.8239 57.9821 86.9349 59.1621 86.9349C65.5561 86.9349 71.7031 83.7579 75.3541 78.2819L83.3531 66.2769C85.5431 73.0859 88.7051 82.0039 90.6101 83.2709C90.8721 83.4449 91.3051 83.6539 91.8811 83.6539C92.2831 83.6539 92.7541 83.5509 93.2841 83.2649C96.8651 81.3289 102.801 69.7439 102.763 64.7629C102.731 60.1979 98.0581 49.4979 96.6341 46.3429L98.4591 43.6039C101.507 39.0359 104.874 29.9179 106.465 21.9229ZM68.6361 23.7279C71.0851 20.0529 77.4041 13.7529 84.7421 8.82087C92.4781 3.62287 98.6391 1.79087 101.651 3.79887C104.66 5.80287 105.342 12.1949 103.522 21.3379C101.795 30.0119 98.4131 38.2679 95.9631 41.9409L80.1411 65.6889L61.4111 53.2109C61.4041 53.2059 61.3991 53.1999 61.3911 53.1949C61.3841 53.1899 61.3761 53.1879 61.3681 53.1829L52.8111 47.4819L65.7661 28.0359C65.8051 27.9859 65.8391 27.9329 65.8721 27.8779L68.6361 23.7279ZM34.0231 42.9519C34.4981 40.4029 41.5741 31.4249 45.5751 29.7889C48.4531 28.6159 56.7331 28.4669 61.8291 28.5349L52.6541 42.3069C44.9351 43.0149 36.1491 43.4159 34.0231 42.9519ZM45.5281 58.4139L51.1491 49.9769L58.4791 54.8599L44.7941 75.3959C41.9031 70.1029 42.1201 63.5279 45.5281 58.4139ZM50.3541 89.0859C49.0281 91.0729 46.2281 91.5459 44.1131 90.1349C43.0771 89.4469 42.3621 88.4179 42.0971 87.2389C41.8391 86.0869 42.0471 84.9269 42.6821 83.9729L46.0031 78.9899C46.0251 78.9579 46.0481 78.9269 46.0671 78.8939L60.9751 56.5229L68.6451 61.6329L50.3541 89.0859ZM72.8601 76.6179C69.4471 81.7359 63.4561 84.4689 57.4571 83.8349L71.1421 63.2959L78.4791 68.1839L72.8601 76.6179ZM99.7641 64.7859C99.7971 69.1049 94.2571 79.0639 92.0791 80.5119C90.7751 78.6159 87.7891 70.4179 85.4871 63.0749L94.6611 49.3049C96.6881 53.9799 99.7411 61.6779 99.7641 64.7859Z" fill="#F2826D"/>
<path d="M76.7593 40.1379C78.7573 41.4709 81.0203 42.1089 83.2603 42.1089C87.0633 42.1089 90.8013 40.2699 93.0683 36.8729L93.0693 36.8719C96.6593 31.4739 95.1913 24.1579 89.7973 20.5629C87.1823 18.8209 84.0433 18.2029 80.9673 18.8199C77.8863 19.4369 75.2323 21.2159 73.4933 23.8299C71.7503 26.4439 71.1303 29.5799 71.7473 32.6599C72.3633 35.7389 74.1443 38.3949 76.7593 40.1379ZM75.9903 25.4919C77.2853 23.5459 79.2613 22.2209 81.5553 21.7609C82.1353 21.6449 82.7173 21.5879 83.2943 21.5879C85.0053 21.5879 86.6783 22.0899 88.1333 23.0599C92.1523 25.7379 93.2453 31.1869 90.5713 35.2089C87.8873 39.2309 82.4373 40.3189 78.4233 37.6429C76.4743 36.3439 75.1473 34.3659 74.6883 32.0719C74.2283 29.7759 74.6903 27.4409 75.9903 25.4919Z" fill="#F2826D"/>
</g>
</svg>
