<svg width="54" height="53" viewBox="0 0 54 53" fill="none" xmlns="http://www.w3.org/2000/svg">
<path d="M26.4263 40.0729C34.2934 40.1615 40.7415 33.9755 40.8285 26.256C40.9155 18.5364 34.6084 12.2067 26.7413 12.118C18.8741 12.0294 12.4261 18.2154 12.3391 25.9349C12.2521 33.6545 18.5592 39.9842 26.4263 40.0729Z" fill="white"/>
<path d="M29.9361 10.7587L29.8766 10.758C27.8418 10.1603 25.6769 10.1359 23.6292 10.6876L23.5473 10.6867L26.8666 0.296332L29.9361 10.7587Z" fill="white"/>
<path d="M29.5893 41.5046L29.5297 41.5039C27.4819 42.0557 25.3171 42.0313 23.2823 41.4335L23.2004 41.4326L26.2848 51.8951L29.5893 41.5046Z" fill="white"/>
<path d="M10.952 22.7696L10.9514 22.8281C10.3431 24.8245 10.3192 26.9487 10.8823 28.9583L10.8817 29.0094L0.290749 25.799L10.952 22.7696Z" fill="white"/>
<path d="M42.2859 23.123L42.2852 23.1815C42.8484 25.1911 42.8244 27.3153 42.2162 29.3117L42.2156 29.3628L52.8765 26.3627L42.2859 23.123Z" fill="white"/>
<path d="M17.8997 12.9173L17.862 12.9607C15.9913 13.9484 14.4416 15.4326 13.3901 17.2437L13.3524 17.2798L8.19586 7.6416L17.8997 12.9173Z" fill="white"/>
<path d="M39.8146 34.9038L39.7694 34.9471C39.2465 35.8495 38.598 36.6759 37.8427 37.4026C37.0829 38.1245 36.2266 38.7417 35.2974 39.2374L35.2598 39.2735L44.9636 44.5492L39.8146 34.9038Z" fill="white"/>
<path d="M13.1575 34.6042L13.2017 34.6486C13.6995 35.5616 14.3242 36.4023 15.0577 37.1467C15.7985 37.8853 16.6381 38.5216 17.5535 39.0383L17.5903 39.0752L7.78499 44.1311L13.1575 34.6042Z" fill="white"/>
<path d="M35.5547 13.1169L35.5989 13.1612C36.5178 13.6702 37.3604 14.3019 38.1023 15.0382C38.8381 15.7815 39.4675 16.6196 39.9733 17.5292L40.0101 17.5662L45.3825 8.0466L35.5547 13.1169Z" fill="white"/>
</svg>
