<svg width="144" height="94" viewBox="0 0 144 94" fill="none" xmlns="http://www.w3.org/2000/svg">
<mask id="mask0" mask-type="alpha" maskUnits="userSpaceOnUse" x="0" y="0" width="144" height="94">
<rect width="144" height="94" fill="#C4C4C4"/>
</mask>
<g mask="url(#mask0)">
<path d="M72.1138 48.8892C59.9468 48.8892 50.0479 58.7872 50.0479 70.9542C50.0479 71.7822 50.7189 72.4542 51.5479 72.4542H92.6788C93.5068 72.4542 94.1788 71.7822 94.1788 70.9542C94.1788 58.7872 84.2799 48.8892 72.1138 48.8892ZM53.1069 69.4542C53.8749 59.6402 62.1068 51.8892 72.1138 51.8892C82.1208 51.8892 90.3529 59.6402 91.1199 69.4542H53.1069Z" fill="#A9D18E"/>
<path d="M71.7538 46.908C78.8968 46.908 84.7078 41.097 84.7078 33.954C84.7078 26.811 78.8958 21 71.7538 21C64.6108 21 58.7998 26.811 58.7998 33.954C58.7998 41.097 64.6108 46.908 71.7538 46.908ZM71.7538 24C77.2418 24 81.7078 28.465 81.7078 33.954C81.7078 39.442 77.2418 43.908 71.7538 43.908C66.2648 43.908 61.7998 39.443 61.7998 33.954C61.7998 28.465 66.2648 24 71.7538 24Z" fill="#A9D18E"/>
<path d="M42.788 57.166C45.249 57.166 47.666 57.822 49.778 59.064C50.492 59.486 51.412 59.245 51.831 58.532C52.251 57.818 52.013 56.898 51.298 56.478C48.726 54.965 45.783 54.166 42.788 54.166C33.531 54.166 26 61.697 26 70.954C26 71.782 26.671 72.454 27.5 72.454H46.512C47.341 72.454 48.012 71.782 48.012 70.954C48.012 70.126 47.341 69.454 46.512 69.454H29.081C29.831 62.554 35.692 57.166 42.788 57.166Z" fill="#A9D18E"/>
<path d="M42.5218 51.7712C48.0428 51.7712 52.5358 47.2792 52.5358 41.7572C52.5358 36.2352 48.0438 31.7432 42.5218 31.7432C36.9998 31.7432 32.5078 36.2352 32.5078 41.7572C32.5078 47.2782 36.9998 51.7712 42.5218 51.7712ZM42.5218 34.7432C46.3888 34.7432 49.5358 37.8892 49.5358 41.7572C49.5358 45.6242 46.3898 48.7712 42.5218 48.7712C38.6538 48.7712 35.5078 45.6252 35.5078 41.7572C35.5078 37.8892 38.6538 34.7432 42.5218 34.7432Z" fill="#A9D18E"/>
<path d="M101.561 54.166C98.5669 54.166 95.6239 54.966 93.0509 56.478C92.3359 56.898 92.0979 57.817 92.5179 58.531C92.9379 59.247 93.8599 59.484 94.5709 59.064C96.6839 57.822 99.1009 57.166 101.561 57.166C108.657 57.166 114.518 62.554 115.268 69.454H97.8399C97.0119 69.454 96.3399 70.126 96.3399 70.954C96.3399 71.782 97.0119 72.454 97.8399 72.454H116.849C117.677 72.454 118.349 71.782 118.349 70.954C118.349 61.697 110.818 54.166 101.561 54.166Z" fill="#A9D18E"/>
<path d="M101.828 51.7712C107.349 51.7712 111.842 47.2792 111.842 41.7572C111.842 36.2352 107.35 31.7432 101.828 31.7432C96.306 31.7432 91.813 36.2352 91.813 41.7572C91.814 47.2782 96.306 51.7712 101.828 51.7712ZM101.828 34.7432C105.695 34.7432 108.842 37.8892 108.842 41.7572C108.842 45.6242 105.696 48.7712 101.828 48.7712C97.96 48.7712 94.813 45.6252 94.813 41.7572C94.814 37.8892 97.96 34.7432 101.828 34.7432Z" fill="#A9D18E"/>
</g>
</svg>
