<svg width="36" height="45" viewBox="0 0 36 45" fill="none" xmlns="http://www.w3.org/2000/svg">
<path d="M35.2611 6.2382C35.7047 8.08809 35.6803 10.0139 35.19 11.8528C34.6513 13.8064 33.9292 15.7087 33.0328 17.5359C32.1699 19.4956 31.5963 21.0046 31.4542 22.1118C31.3121 22.6654 31.241 24.194 31.3121 26.6877C31.4 29.0251 31.3033 31.3656 31.0228 33.6888C29.9467 41.2434 28.2209 44.9865 25.8556 44.9865C25.375 44.9887 24.9024 44.8687 24.4851 44.6386C24.0628 44.269 23.7641 43.7863 23.6273 43.2521C23.4223 42.666 23.2762 42.0623 23.1908 41.4492C23.095 40.667 23.0459 39.8802 23.0436 39.0926C23.0213 38.2754 23.0467 37.4575 23.1197 36.643C23.1908 36.0208 23.2619 35.1732 23.3329 34.1493C23.4612 32.9285 23.4866 31.6996 23.4091 30.4748C23.0436 26.3154 21.1808 24.3067 18.0185 24.3067C14.7193 24.3067 12.9427 26.3154 12.562 30.4748C12.4846 31.6995 12.5084 32.9282 12.6331 34.1493C12.7042 35.1879 12.7803 36.0208 12.7803 36.643C12.7803 37.2652 12.8514 38.0295 12.9224 39.0926C12.9574 39.8808 12.9098 40.6703 12.7803 41.4492C12.6941 42.0617 12.5497 42.6652 12.3489 43.2521C12.2188 43.7833 11.9292 44.2656 11.5164 44.6386C11.1008 44.8681 10.6299 44.9881 10.151 44.9865C7.78063 44.9865 6.05485 41.2434 4.97878 33.6888C4.7054 31.365 4.61039 29.025 4.69454 26.6877C4.78793 25.1614 4.74036 23.63 4.55241 22.1118C4.40522 21.0046 3.83165 19.4809 2.96876 17.5359C2.09616 15.697 1.36826 13.7972 0.791238 11.8528C0.290985 10.0196 0.216456 8.1024 0.572978 6.2382C1.3648 3.18596 2.94338 1.25075 5.45591 0.417879C7.18168 -0.209226 9.40997 -0.135737 12.0545 0.692238C14.699 1.52021 16.7191 1.87296 18.0135 1.87296C19.3078 1.87296 21.1757 1.52511 23.9014 0.692238C26.6271 -0.140636 28.7996 -0.209226 30.5913 0.417879C33.0328 1.25075 34.6164 3.18596 35.2611 6.2382Z" fill="white"/>
</svg>
