<svg width="366" height="354" fill="none" xmlns="http://www.w3.org/2000/svg"><path d="M277.261 43.791c25.499 18.533 49.628 37.922 66.354 64.154 16.725 26.516 26.322 59.876 20.838 89.815-5.484 30.223-26.322 57.025-48.257 82.686-21.661 25.377-44.693 49.612-72.934 61.588-28.516 11.975-62.241 11.69-102.821 10.549-40.58-1.14-87.74-3.421-108.03-29.083-20.29-25.661-13.71-74.703-18.645-121.178C8.831 155.846-7.62 112.221 4.17 80.287c11.79-31.934 51.548-51.893 88.563-65.009 36.742-12.83 71.015-18.818 101.45-13.115 30.435 5.702 57.579 23.095 83.079 41.628z" fill="#A9D18E"/><path d="M172.7 119.406a25.232 25.232 0 0025.653-24.728A25.228 25.228 0 00172.7 69.95a25.235 25.235 0 00-23.739 15.08 25.223 25.223 0 00-2.124 9.648 25.226 25.226 0 0016.129 23.039 25.231 25.231 0 009.734 1.689zm29.815 13.625v49.96a5.974 5.974 0 01-6.519 4.963h-44.661a5.932 5.932 0 01-6.519-4.963v-49.96a6.015 6.015 0 016.519-5.005h8.747a19.513 19.513 0 0027.167 0h8.747a5.889 5.889 0 016.519 5.005zm-7.23 58.413H149.74a5.05 5.05 0 00-5.047 5.047v16.822a5.047 5.047 0 005.047 5.046h45.545a5.047 5.047 0 005.046-5.046v-16.822a5.045 5.045 0 00-5.046-5.047z" fill="#fff"/><path d="M156.677 197.627h-.463a11.52 11.52 0 00-10.657 7.142 11.528 11.528 0 00-.866 4.423v63.376a11.527 11.527 0 0011.523 11.565h.463a11.564 11.564 0 0011.523-11.565v-63.376a11.566 11.566 0 00-11.523-11.565zm32.087.001h-.463a11.566 11.566 0 00-11.396 11.565v63.375a11.563 11.563 0 0011.523 11.565h.462a11.565 11.565 0 0011.565-11.565v-63.375a11.564 11.564 0 00-11.691-11.565zm-66.994 6.223a9.418 9.418 0 01-2.943-11.397l25.569-59.423a6.395 6.395 0 016.616-4.641 6.392 6.392 0 012.762.857 9.464 9.464 0 012.944 11.438l-25.569 59.633a6.404 6.404 0 01-3.835 4.034 6.4 6.4 0 01-5.544-.501zm103.708-.001a9.418 9.418 0 002.902-11.397l-25.569-59.422a6.348 6.348 0 00-9.378-3.575 9.458 9.458 0 00-2.944 11.439l25.611 59.422a6.35 6.35 0 009.378 3.533z" fill="#fff"/></svg>