<svg width="374" height="339" fill="none" xmlns="http://www.w3.org/2000/svg"><path d="M281.261 42.042c25.499 17.794 49.628 36.408 66.354 61.592 16.725 25.458 26.322 57.486 20.838 86.229-5.484 29.016-26.322 54.748-48.257 79.384-21.661 24.363-44.693 47.631-72.934 59.128-28.516 11.498-62.241 11.224-102.821 10.129-40.58-1.095-87.74-3.285-108.03-27.922-20.29-24.636-13.71-71.72-18.645-116.34C12.831 149.623-3.62 107.74 8.17 77.082c11.79-30.66 51.547-49.822 88.562-62.414C133.474 2.35 167.747-3.399 198.182 2.076c30.435 5.475 57.579 22.173 83.079 39.966z" fill="#F2826D"/><path d="M238.255 123.078a42.028 42.028 0 01-.448 19.87 119.345 119.345 0 01-7.552 20.113c-3.009 6.936-5.017 12.276-5.542 16.195-.504 1.959-.802 7.369-.651 16.194a163.852 163.852 0 01-1.242 24.778c-3.94 26.736-9.952 39.983-18.004 39.983a9.22 9.22 0 01-4.652-1.231 9.673 9.673 0 01-2.869-4.907 34.066 34.066 0 01-1.42-6.381 73.012 73.012 0 01-.415-8.34 77.48 77.48 0 01.35-8.669c.264-2.202.537-5.202.817-8.826.481-4.32.613-8.669.394-13.004-1.092-14.721-7.359-21.83-18.123-21.83-11.231 0-17.352 7.109-18.8 21.83a81.936 81.936 0 00.107 13.004c.203 3.676.432 6.624.409 8.826-.023 2.202.191 4.907.394 8.669a41.7 41.7 0 01-.57 8.34 36.015 36.015 0 01-1.535 6.381 9.949 9.949 0 01-2.885 4.907 9.336 9.336 0 01-4.66 1.231c-8.069 0-13.806-13.247-17.192-39.983a168.267 168.267 0 01-.71-24.778 91.426 91.426 0 00-.316-16.194c-.461-3.919-2.357-9.311-5.223-16.195a141.473 141.473 0 01-7.204-20.113 45.653 45.653 0 01-.536-19.87c2.807-10.803 8.251-17.651 16.835-20.599 5.897-2.219 13.48-1.959 22.451.971s15.835 4.179 20.241 4.179c4.406 0 10.777-1.231 20.086-4.179 9.309-2.948 16.706-3.19 22.782-.971 8.281 2.948 13.6 9.796 15.683 20.599z" fill="#fff"/></svg>