<svg width="366" height="339" fill="none" xmlns="http://www.w3.org/2000/svg"><path d="M277.261 42.042c25.499 17.794 49.628 36.408 66.354 61.592 16.725 25.458 26.322 57.486 20.838 86.229-5.484 29.016-26.322 54.748-48.257 79.384-21.661 24.363-44.693 47.631-72.934 59.128-28.516 11.498-62.241 11.224-102.821 10.129-40.58-1.095-87.74-3.285-108.03-27.922-20.29-24.636-13.71-71.72-18.645-116.34C8.831 149.623-7.62 107.74 4.17 77.082c11.79-30.66 51.548-49.822 88.563-62.414C129.474 2.35 163.747-3.399 194.182 2.076c30.435 5.475 57.579 22.173 83.079 39.966z" fill="#EFBC3F"/><path d="M177.212 217.988c27.292 0 49.416-21.709 49.416-48.488 0-26.78-22.124-48.489-49.416-48.489-27.292 0-49.416 21.709-49.416 48.489 0 26.779 22.124 48.488 49.416 48.488zm11.03-101.818h-.207a40.009 40.009 0 00-21.673 0h-.284L177.186 80l11.056 36.17zm-.002 106.66h-.207a40.009 40.009 0 01-21.673 0h-.284L177.184 259l11.056-36.17zm-65.378-64.254v.203a37.855 37.855 0 000 21.266v.177L86 169.501l36.862-10.925zm108.698 0v.203a37.855 37.855 0 010 21.266v.177l36.862-10.823-36.862-10.823zm-84.984-34.449l-.129.152c-6.45 3.499-11.767 8.708-15.344 15.031l-.129.127-18.263-33.23 33.865 17.92zm76.873 75.408l-.155.152a38.815 38.815 0 01-6.587 8.593 40.455 40.455 0 01-8.757 6.463l-.129.127 33.866 17.92-18.238-33.255zm-92.475.002l.155.152a38.84 38.84 0 006.535 8.593 40.356 40.356 0 008.731 6.463l.13.127-33.814 17.92 18.263-33.255zm76.849-75.407l.155.152a39.48 39.48 0 018.757 6.413 39.759 39.759 0 016.587 8.567l.129.127 18.263-33.23-33.891 17.971z" fill="#fff"/></svg>