<svg width="366" height="339" fill="none" xmlns="http://www.w3.org/2000/svg"><path d="M277.261 42.042c25.499 17.794 49.628 36.408 66.354 61.592 16.725 25.458 26.322 57.486 20.838 86.229-5.484 29.016-26.322 54.748-48.257 79.384-21.661 24.363-44.693 47.631-72.934 59.128-28.516 11.498-62.241 11.224-102.821 10.129-40.58-1.095-87.74-3.285-108.03-27.922-20.29-24.636-13.71-71.72-18.645-116.34C8.831 149.623-7.62 107.74 4.17 77.082c11.79-30.66 51.548-49.822 88.563-62.414C129.474 2.35 163.747-3.399 194.182 2.076c30.435 5.475 57.579 22.173 83.079 39.966z" fill="#3B5673"/><path fill-rule="evenodd" clip-rule="evenodd" d="M132.79 93.877l2.645 5.57 6.039.978-4.433 4.261.967 6.105-5.382-2.951-5.437 2.822 1.095-6.087-4.324-4.353 6.057-.83 2.773-5.515zm-18.242 75.627l2.645 5.589 6.039.94-4.434 4.28.967 6.105-5.381-2.951-5.437 2.822 1.095-6.087-4.324-4.371 6.057-.812 2.773-5.515zm-8.721-30.437l.693 3.855 3.539 1.605-3.411 1.863-.42 3.91-2.809-2.711-3.795.812 1.678-3.542-1.934-3.412 3.85.535 2.609-2.915zm26.143-.864l9.322 1.568 6.568-6.88 1.423 9.462 8.502 4.187-8.466 4.279-1.313 9.462-6.641-6.806-9.304 1.66 4.342-8.484-4.433-8.448z" fill="#fff"/><path fill-rule="evenodd" clip-rule="evenodd" d="M239.425 157.124c4.068 43.566-28.314 82.319-72.519 86.561a79.916 79.916 0 01-37.785-5.379A80.746 80.746 0 0198 215.981a81.42 81.42 0 0016.839.111c44.131-4.224 76.623-42.977 72.519-86.544-1.502-16.103-7.944-31.329-18.427-43.548 36.853 4.113 66.937 33.201 70.494 71.124z" fill="#fff"/></svg>