<svg width="366" height="339" fill="none" xmlns="http://www.w3.org/2000/svg"><path d="M277.261 42.042c25.499 17.794 49.628 36.408 66.354 61.592 16.725 25.458 26.322 57.486 20.838 86.229-5.484 29.016-26.322 54.748-48.257 79.384-21.661 24.363-44.693 47.631-72.934 59.128-28.516 11.498-62.241 11.224-102.821 10.129-40.58-1.095-87.74-3.285-108.03-27.922-20.29-24.636-13.71-71.72-18.645-116.34C8.831 149.623-7.62 107.74 4.17 77.082c11.79-30.66 51.548-49.822 88.563-62.414C129.474 2.35 163.747-3.399 194.182 2.076c30.435 5.475 57.579 22.173 83.079 39.966z" fill="#109294"/><path fill-rule="evenodd" clip-rule="evenodd" d="M110 169.502v27.441a2.918 2.918 0 002.918 2.918h43.038a2.918 2.918 0 012.918 2.919v42.723a2.916 2.916 0 002.918 2.919h26.746a2.92 2.92 0 002.918-2.919V202.78a2.932 2.932 0 01.855-2.064 2.926 2.926 0 012.063-.855h43.107a2.926 2.926 0 002.078-.846 2.924 2.924 0 00.863-2.072v-27.441a2.941 2.941 0 00-2.941-2.941h-43.107a2.92 2.92 0 01-2.918-2.919v-42.723a2.92 2.92 0 00-2.918-2.919h-26.677a2.92 2.92 0 00-2.918 2.919v42.723a2.922 2.922 0 01-2.987 2.919h-43.038a2.922 2.922 0 00-2.071.863 2.909 2.909 0 00-.847 2.078z" fill="#fff"/></svg>