<svg width="36" height="45" fill="none" xmlns="http://www.w3.org/2000/svg"><path d="M35.261 6.238c.444 1.85.42 3.776-.071 5.615a32.546 32.546 0 01-2.157 5.683c-.863 1.96-1.437 3.469-1.579 4.576-.142.553-.213 2.082-.142 4.576a44.462 44.462 0 01-.29 7c-1.075 7.555-2.801 11.298-5.166 11.298a2.813 2.813 0 01-1.37-.347 2.752 2.752 0 01-.859-1.387 9.379 9.379 0 01-.436-1.803 19.86 19.86 0 01-.147-2.356c-.023-.818.003-1.636.076-2.45.07-.622.142-1.47.213-2.494.128-1.22.154-2.45.076-3.674-.365-4.16-2.228-6.168-5.39-6.168-3.3 0-5.076 2.008-5.457 6.168a22.312 22.312 0 00.071 3.674c.071 1.039.147 1.872.147 2.494 0 .622.071 1.386.142 2.45.035.788-.012 1.577-.142 2.356a9.778 9.778 0 01-.431 1.803 2.753 2.753 0 01-.833 1.387c-.415.23-.886.35-1.365.347-2.37 0-4.096-3.743-5.172-11.297a45.808 45.808 0 01-.284-7.001 24.875 24.875 0 00-.143-4.576c-.147-1.107-.72-2.631-1.583-4.576A39.409 39.409 0 01.79 11.853C.29 10.02.215 8.103.572 6.238c.792-3.052 2.37-4.987 4.883-5.82 1.727-.628 3.955-.554 6.6.274 2.644.828 4.664 1.181 5.959 1.181 1.294 0 3.162-.348 5.887-1.18 2.726-.834 4.899-.902 6.69-.275 2.442.833 4.025 2.768 4.67 5.82z" fill="#fff"/></svg>