<svg width="38" height="24" fill="none" xmlns="http://www.w3.org/2000/svg"><rect width="27.593" height="16.932" rx="1" transform="matrix(-1 0 0 1 38 0)" fill="#F2994A"/><path d="M38 18.993v-7.332a1 1 0 00-1-1h-4.438a1 1 0 00-.855 1.518l4.438 7.332c.524.866 1.855.494 1.855-.518z" fill="#F2994A"/><path fill-rule="evenodd" clip-rule="evenodd" d="M28.593 4.235a1 1 0 00-1-1H2a1 1 0 00-1 1v17.993c0 1.012 1.331 1.384 1.856.518l1.268-2.096a1 1 0 01.856-.482h22.613a1 1 0 001-1V4.235z" fill="#fff"/><path d="M2.856 22.746l-.428-.259.428.259zM2 3.736h25.593v-1H2v1zm-.5 10.16v-9.66h-1v9.66h1zm0 6.272v-6.272h-1v6.272h1zm0 2.06v-2.06h-1v2.06h1zm2.196-1.837l-1.268 2.096.855.518 1.269-2.096-.855-.518zm23.897-.723H4.98v1h22.613v-1zm.5-15.433v14.933h1V4.235h-1zM.5 22.228c0 1.518 1.997 2.076 2.783.777l-.855-.518c-.262.433-.928.247-.928-.259h-1zm27.093-1.56a1.5 1.5 0 001.5-1.5h-1a.5.5 0 01-.5.5v1zm0-16.933a.5.5 0 01.5.5h1a1.5 1.5 0 00-1.5-1.5v1zM4.552 20.91a.5.5 0 01.428-.241v-1a1.5 1.5 0 00-1.284.723l.856.518zM2 2.735a1.5 1.5 0 00-1.5 1.5h1a.5.5 0 01.5-.5v-1z" fill="#F2994A"/></svg>