<svg width="43" height="41" fill="none" xmlns="http://www.w3.org/2000/svg"><path fill-rule="evenodd" clip-rule="evenodd" d="M.424 16.19v8.627a.9.9 0 00.278.648c.178.173.42.27.672.27h14.017c.252 0 .494.096.672.268a.902.902 0 01.279.649v13.43c0 .244.1.477.278.65.178.171.42.268.672.268h8.711a.968.968 0 00.672-.269.902.902 0 00.278-.648V26.652a.89.89 0 01.279-.649.953.953 0 01.672-.269h14.04a.981.981 0 00.676-.266.89.89 0 00.281-.651V16.19c0-.245-.1-.48-.28-.653a.976.976 0 00-.678-.271H27.904a.968.968 0 01-.672-.269.902.902 0 01-.279-.649V.918c0-.244-.1-.477-.278-.65A.968.968 0 0026.003 0h-8.689a.968.968 0 00-.672.269.902.902 0 00-.278.649v13.43a.892.892 0 01-.286.657.953.953 0 01-.687.26H1.374a.98.98 0 00-.674.272.916.916 0 00-.276.653z" fill="#fff"/></svg>