<svg width="92" height="82" fill="none" xmlns="http://www.w3.org/2000/svg"><mask id="a" fill="#fff"><path fill-rule="evenodd" clip-rule="evenodd" d="M90.574 46.835c.89 0 1.337-1.077.708-1.707L46.496.293a1 1 0 00-1.416 0L.296 45.128c-.63.63-.184 1.707.707 1.707h11.286a1 1 0 011 1v32.75a1 1 0 001 1h64a1 1 0 001-1v-32.75a1 1 0 011-1h10.286z"/></mask><path d="M.295 45.128l2.83 2.827-2.83-2.827zm90.987 0l2.83-2.827-2.83 2.827zM46.496.293l2.83-2.827-2.83 2.827zm-1.416 0l-2.83-2.827L45.08.293zM43.666 3.12l44.786 44.835 5.66-5.654L49.326-2.534l-5.66 5.654zM3.124 47.955L47.91 3.12l-5.66-5.654-44.785 44.835 5.66 5.654zm9.164-5.12H1.002v8h11.286v-8zm5 37.75v-32.75h-8v32.75h8zm61-3h-64v8h64v-8zm-3-29.75v32.75h8v-32.75h-8zm15.286-5H80.288v8h10.286v-8zm-7.286 5a3 3 0 01-3 3v-8a5 5 0 00-5 5h8zm-5 37.75a5 5 0 005-5h-8a3 3 0 013-3v8zm-69-5a5 5 0 005 5v-8a3 3 0 013 3h-8zm3-29.75a3 3 0 01-3-3h8a5 5 0 00-5-5v8zm-14.823-8.534c-3.148 3.151-.916 8.534 3.537 8.534v-8c2.672 0 4.01 3.23 2.122 5.12l-5.66-5.654zm90.987 5.654c-1.889-1.89-.55-5.12 2.122-5.12v8c4.453 0 6.685-5.383 3.538-8.534l-5.66 5.654zM49.325-2.534a5 5 0 00-7.074 0l5.66 5.654a3 3 0 01-4.245 0l5.66-5.654z" fill="#3B5673" mask="url(#a)"/><path fill-rule="evenodd" clip-rule="evenodd" d="M30 48.242v6.522a.694.694 0 00.694.694h10.23a.694.694 0 01.693.693v10.155a.694.694 0 00.694.694h6.357a.694.694 0 00.693-.694V56.151a.693.693 0 01.694-.693h10.246a.694.694 0 00.699-.694v-6.522a.699.699 0 00-.7-.7H50.056a.694.694 0 01-.694-.693V36.694a.694.694 0 00-.693-.694h-6.341a.693.693 0 00-.694.694v10.155a.694.694 0 01-.71.693h-10.23a.694.694 0 00-.693.7z" fill="#3B5673"/></svg>