<svg width="30" height="55" fill="none" xmlns="http://www.w3.org/2000/svg"><path d="M14.883 13.163a6.714 6.714 0 006.827-6.58 6.715 6.715 0 00-6.827-6.58A6.715 6.715 0 008 6.582a6.715 6.715 0 006.883 6.58zm7.608 1.626v13.295a1.589 1.589 0 01-1.735 1.32H8.871a1.578 1.578 0 01-1.734-1.32V14.79a1.6 1.6 0 011.734-1.332H11.2a5.193 5.193 0 007.23 0h2.327a1.567 1.567 0 011.735 1.332zm-1.925 15.545H8.446a1.343 1.343 0 00-1.343 1.343v4.477a1.343 1.343 0 001.343 1.342h12.12a1.343 1.343 0 001.343-1.343v-4.476a1.343 1.343 0 00-1.343-1.343z" fill="#fff"/><path d="M10.293 31.979h-.123a3.067 3.067 0 00-3.067 3.078v16.865A3.067 3.067 0 0010.17 55h.123a3.077 3.077 0 003.066-3.078V35.057a3.077 3.077 0 00-3.066-3.078zm8.539.001h-.123a3.077 3.077 0 00-3.033 3.077v16.865A3.078 3.078 0 0018.742 55h.124a3.078 3.078 0 003.077-3.078V35.057a3.079 3.079 0 00-3.111-3.078zM1.004 33.635a2.507 2.507 0 01-.784-3.032l6.804-15.814a1.701 1.701 0 012.496-1.007 2.518 2.518 0 01.784 3.044l-6.805 15.87a1.701 1.701 0 01-2.496.94zm27.598 0a2.507 2.507 0 00.772-3.033L22.57 14.79a1.691 1.691 0 00-2.496-.952 2.518 2.518 0 00-.783 3.044l6.815 15.814a1.691 1.691 0 002.496.94z" fill="#fff"/></svg>