<svg width="39" height="41" fill="none" xmlns="http://www.w3.org/2000/svg"><path fill-rule="evenodd" clip-rule="evenodd" d="M9.795 2.033l.715 1.438 1.633.252-1.2 1.1.262 1.576-1.455-.761-1.47.728.296-1.571L7.407 3.67l1.638-.214.75-1.424zM4.862 21.555l.715 1.442 1.633.243-1.199 1.105.262 1.576-1.456-.762-1.47.729.296-1.572-1.169-1.128 1.638-.21.75-1.423zm-2.358-7.857l.187.995.957.415-.923.48-.113 1.01-.76-.7-1.026.21.454-.915-.523-.88 1.041.137.706-.752zm7.069-.223l2.52.405 1.776-1.777.385 2.443 2.299 1.08-2.29 1.106-.354 2.442-1.796-1.757-2.516.429 1.174-2.19-1.198-2.181z" fill="#fff"/><path fill-rule="evenodd" clip-rule="evenodd" d="M38.628 18.36c1.1 11.246-7.656 21.25-19.609 22.345a22.549 22.549 0 01-10.217-1.389 21.835 21.835 0 01-8.414-5.763c1.512.16 3.038.17 4.553.029 11.932-1.09 20.718-11.094 19.608-22.34C24.143 7.085 22.401 3.154 19.567 0c9.964 1.062 18.099 8.57 19.06 18.36z" fill="#fff"/></svg>