<svg width="144" height="94" fill="none" xmlns="http://www.w3.org/2000/svg"><mask id="a" maskUnits="userSpaceOnUse" x="0" y="0" width="144" height="94"><path fill="#C4C4C4" d="M0 0h144v94H0z"/></mask><g mask="url(#a)"><path d="M136.981 42.648c-1.08 0-2.669.435-4.104 2.506-.062.09-.115.186-.156.287-.782 1.915-2.385 3.1-3.421 3.1-.854 0-1.834-.993-2.594-2.611V23.94a1.5 1.5 0 00-1.5-1.5h-21.833c-1.777-.773-2.869-1.797-2.869-2.707 0-.852.993-1.83 2.612-2.591.171-.035.339-.1.494-.197 1.863-1.163 2.889-2.711 2.889-4.359 0-3.754-5.222-6.586-12.146-6.586-6.92 0-12.14 2.832-12.14 6.586 0 1.023.39 2.485 2.155 3.851.165.264.41.474.705.594 1.934.789 3.134 1.869 3.134 2.818 0 .854-.994 1.832-2.616 2.591H63.504a1.5 1.5 0 00-1.5 1.5v22.297c-.018.238.022.481.12.707 1.316 3.025 3.258 4.691 5.47 4.691 2.183 0 4.157-1.698 5.455-4.675a.479.479 0 00.025-.037c.567-.875 1.203-1.376 1.746-1.376 1.462 0 3.586 3.562 3.586 9.144 0 5.583-2.124 9.145-3.586 9.145-.516 0-1.119-.456-1.67-1.258-1.314-2.995-3.246-4.643-5.443-4.643-2.262 0-4.302 1.822-5.596 4.999a1.48 1.48 0 00-.107.666v22.041a1.5 1.5 0 001.5 1.5h22.41c.205 0 .408-.042.598-.125 3.027-1.317 4.695-3.259 4.695-5.467 0-2.146-1.642-4.092-4.525-5.392a1.54 1.54 0 00-.173-.135c-.486-.326-1.3-.979-1.3-1.697 0-1.462 3.561-3.585 9.144-3.585 5.58 0 9.142 2.124 9.142 3.585 0 .492-.405 1.056-1.126 1.579a1.38 1.38 0 00-.173.063c-3.026 1.315-4.692 3.257-4.692 5.466 0 2.295 1.776 4.283 5.001 5.596a1.5 1.5 0 00.565.111h22.136a1.5 1.5 0 001.5-1.5V63.71c.775-1.777 1.799-2.869 2.707-2.869.762 0 2.28 1.074 3.182 3.091.04.108.092.212.156.309 1.146 1.737 2.648 2.694 4.23 2.694 3.755 0 6.586-5.221 6.586-12.144s-2.832-12.143-6.586-12.143zm0 21.287c-.509 0-1.106-.448-1.651-1.234-1.284-2.867-3.704-4.859-5.917-4.859-2.263 0-4.303 1.823-5.597 5.001-.073.18-.11.372-.11.565v20.733h-20.333c-1.777-.775-2.869-1.8-2.869-2.707 0-.837.957-1.795 2.522-2.548.21-.027.418-.099.607-.218 1.846-1.16 2.861-2.702 2.861-4.342 0-3.754-5.22-6.585-12.142-6.585-6.924 0-12.145 2.831-12.145 6.585 0 1.032.397 2.516 2.215 3.893.163.227.39.406.651.514 1.933.788 3.133 1.867 3.133 2.817 0 .852-.995 1.831-2.616 2.591H65.003V63.795c.774-1.771 1.797-2.859 2.703-2.859.873 0 1.878 1.042 2.645 2.732.04.135.1.265.177.386 1.158 1.794 2.682 2.783 4.292 2.783 3.755 0 6.586-5.221 6.586-12.145 0-6.923-2.83-12.144-6.586-12.144-1.504 0-2.93.859-4.05 2.429-.155.146-.28.325-.364.53-.785 1.931-1.863 3.13-2.813 3.13-.853 0-1.83-.99-2.589-2.604V25.442h20.91c.204 0 .408-.042.597-.124 3.028-1.314 4.696-3.256 4.696-5.467 0-2.119-1.604-4.045-4.427-5.347a1.466 1.466 0 00-.238-.197c-.846-.562-1.33-1.188-1.33-1.72 0-1.462 3.561-3.586 9.141-3.586 5.583 0 9.146 2.124 9.146 3.586 0 .515-.443 1.107-1.228 1.65l-.076.031c-3.025 1.317-4.69 3.259-4.69 5.466 0 2.265 1.822 4.305 5.001 5.596.179.073.371.11.564.11h20.636v20.812c0 .206.042.41.125.599 1.315 3.024 3.258 4.689 5.469 4.689 2.408 0 4.906-1.964 6.128-4.797.335-.457.918-1.096 1.554-1.096 1.462 0 3.586 3.562 3.586 9.144 0 5.582-2.126 9.144-3.587 9.144z" fill="#F2826D"/><path d="M74.981 42.648c-1.08 0-2.669.435-4.104 2.506-.062.09-.115.186-.156.287-.782 1.915-2.385 3.1-3.42 3.1-.855 0-1.835-.993-2.595-2.611V23.94a1.5 1.5 0 00-1.5-1.5H41.373c-1.777-.773-2.869-1.797-2.869-2.707 0-.852.993-1.83 2.612-2.591.171-.035.34-.1.494-.197 1.863-1.163 2.89-2.711 2.89-4.359C44.5 8.832 39.276 6 32.352 6c-6.92 0-12.14 2.832-12.14 6.586 0 1.023.39 2.485 2.155 3.851.165.264.41.474.705.594 1.934.789 3.134 1.869 3.134 2.818 0 .854-.994 1.832-2.616 2.591H1.504a1.5 1.5 0 00-1.5 1.5v22.297c-.018.238.022.481.12.707 1.316 3.025 3.258 4.691 5.47 4.691 2.183 0 4.157-1.698 5.455-4.675a.479.479 0 00.025-.037c.567-.875 1.203-1.376 1.746-1.376 1.462 0 3.586 3.562 3.586 9.144 0 5.583-2.124 9.145-3.586 9.145-.516 0-1.119-.456-1.67-1.258-1.314-2.995-3.246-4.643-5.443-4.643-2.262 0-4.302 1.822-5.596 4.999a1.48 1.48 0 00-.107.666v22.041a1.5 1.5 0 001.5 1.5h22.41c.205 0 .408-.042.598-.125 3.027-1.317 4.695-3.259 4.695-5.467 0-2.146-1.642-4.092-4.525-5.392a1.54 1.54 0 00-.173-.135c-.486-.326-1.3-.979-1.3-1.697 0-1.462 3.561-3.585 9.144-3.585 5.58 0 9.142 2.124 9.142 3.585 0 .492-.405 1.056-1.126 1.579a1.38 1.38 0 00-.173.063c-3.026 1.315-4.692 3.257-4.692 5.466 0 2.295 1.776 4.283 5.001 5.596a1.5 1.5 0 00.565.111h22.136a1.5 1.5 0 001.5-1.5V63.71c.775-1.777 1.8-2.869 2.707-2.869.762 0 2.28 1.074 3.182 3.091.04.108.092.212.156.309 1.146 1.737 2.648 2.694 4.23 2.694 3.755 0 6.586-5.221 6.586-12.144s-2.832-12.143-6.586-12.143zm0 21.287c-.509 0-1.106-.448-1.65-1.234-1.285-2.867-3.705-4.859-5.918-4.859-2.263 0-4.303 1.823-5.597 5.001-.073.18-.11.372-.11.565v20.733H41.373c-1.777-.775-2.869-1.8-2.869-2.707 0-.837.957-1.795 2.522-2.548.21-.027.418-.099.607-.218 1.846-1.16 2.861-2.702 2.861-4.342 0-3.754-5.22-6.585-12.142-6.585-6.924 0-12.145 2.831-12.145 6.585 0 1.032.397 2.516 2.215 3.893.163.227.39.406.651.514 1.933.788 3.133 1.867 3.133 2.817 0 .852-.995 1.831-2.616 2.591H3.003V63.795c.774-1.771 1.797-2.859 2.703-2.859.873 0 1.878 1.042 2.645 2.732.04.135.1.265.177.386 1.158 1.794 2.682 2.783 4.292 2.783 3.755 0 6.586-5.221 6.586-12.145 0-6.923-2.83-12.144-6.586-12.144-1.504 0-2.93.859-4.05 2.429-.155.146-.28.325-.364.53-.785 1.931-1.863 3.13-2.813 3.13-.853 0-1.83-.99-2.589-2.604V25.442h20.91c.204 0 .408-.042.597-.124 3.028-1.314 4.696-3.256 4.696-5.467 0-2.119-1.604-4.045-4.427-5.347a1.466 1.466 0 00-.238-.197c-.846-.562-1.33-1.188-1.33-1.72 0-1.462 3.561-3.586 9.141-3.586 5.583 0 9.146 2.124 9.146 3.586 0 .515-.443 1.107-1.228 1.65l-.076.031c-3.025 1.317-4.69 3.259-4.69 5.466 0 2.265 1.822 4.305 5.001 5.596.18.073.371.11.564.11h20.636v20.812c0 .206.042.41.125.599 1.315 3.024 3.258 4.689 5.47 4.689 2.407 0 4.905-1.964 6.127-4.797.335-.457.918-1.096 1.554-1.096 1.462 0 3.586 3.562 3.586 9.144 0 5.582-2.126 9.144-3.587 9.144z" fill="#EFBC3F"/></g></svg>