<svg width="144" height="94" fill="none" xmlns="http://www.w3.org/2000/svg"><mask id="a" maskUnits="userSpaceOnUse" x="0" y="0" width="144" height="94"><path fill="#C4C4C4" d="M0 0h144v94H0z"/></mask><g mask="url(#a)" fill="#F2826D"><path d="M106.465 21.923c1.485-7.46 2.145-17.094-3.15-20.621-5.294-3.531-13.932.786-20.246 5.029-6.763 4.545-13.882 11.16-16.929 15.733l-2.338 3.509c-3.466-.098-15.134-.286-19.36 1.438-4.614 1.886-13.019 11.827-13.423 15.877-.146 1.454.58 2.169 1.023 2.463.865.578 3.286.787 6.34.787 3.671 0 8.247-.303 12.14-.631l-1.024 1.535-.016.02c-.005.007-.007.016-.012.023l-6.438 9.664c-4.319 6.48-4.305 14.946-.077 21.405l-2.769 4.155c-1.094 1.642-1.455 3.625-1.016 5.586a7.702 7.702 0 003.28 4.736 7.764 7.764 0 004.312 1.315c2.388 0 4.7-1.117 6.087-3.197l2.763-4.147a19.23 19.23 0 003.55.333c6.394 0 12.541-3.177 16.192-8.653l8-12.005c2.19 6.809 5.351 15.727 7.256 16.994.262.174.695.383 1.271.383.402 0 .873-.103 1.403-.39 3.581-1.935 9.517-13.52 9.479-18.501-.032-4.565-4.705-15.265-6.129-18.42l1.825-2.74c3.048-4.567 6.415-13.685 8.006-21.68zm-37.829 1.805c2.45-3.675 8.768-9.975 16.106-14.907 7.736-5.198 13.897-7.03 16.909-5.022 3.009 2.004 3.691 8.396 1.871 17.539-1.727 8.674-5.109 16.93-7.559 20.603L80.141 65.689 61.411 53.21c-.007-.005-.012-.011-.02-.016-.007-.005-.015-.007-.023-.012l-8.557-5.701 12.955-19.446c.04-.05.073-.103.106-.158l2.764-4.15zM34.023 42.952c.475-2.55 7.551-11.527 11.552-13.163 2.878-1.173 11.158-1.322 16.254-1.254l-9.175 13.772c-7.719.708-16.505 1.109-18.63.645zm11.505 15.462l5.621-8.437 7.33 4.883-13.685 20.536c-2.89-5.293-2.674-11.868.734-16.982zm4.826 30.672c-1.326 1.987-4.126 2.46-6.24 1.049a4.715 4.715 0 01-2.017-2.896c-.258-1.152-.05-2.312.585-3.266l3.321-4.983c.022-.032.045-.063.064-.096l14.908-22.371 7.67 5.11-18.29 27.453zM72.86 76.618c-3.413 5.118-9.404 7.85-15.403 7.217l13.685-20.54 7.337 4.889-5.619 8.434zm26.904-11.832c.033 4.319-5.507 14.278-7.685 15.726-1.304-1.896-4.29-10.094-6.592-17.437l9.174-13.77c2.027 4.675 5.08 12.373 5.103 15.48z"/><path d="M76.76 40.138a11.679 11.679 0 006.5 1.97 11.77 11.77 0 009.808-5.235l.001-.001c3.59-5.398 2.122-12.714-3.272-16.31a11.685 11.685 0 00-8.83-1.742 11.668 11.668 0 00-7.474 5.01 11.677 11.677 0 00-1.746 8.83 11.686 11.686 0 005.012 7.478zm-.77-14.646a8.692 8.692 0 015.565-3.731 8.694 8.694 0 016.578 1.299c4.02 2.678 5.112 8.127 2.438 12.149-2.684 4.022-8.134 5.11-12.148 2.434a8.705 8.705 0 01-3.735-5.571 8.697 8.697 0 011.302-6.58z"/></g></svg>