<svg width="54" height="53" fill="none" xmlns="http://www.w3.org/2000/svg"><path d="M26.426 40.073c7.867.088 14.316-6.098 14.402-13.817.087-7.72-6.22-14.05-14.087-14.138-7.867-.089-14.315 6.097-14.402 13.817-.087 7.72 6.22 14.05 14.087 14.138zm3.51-29.314l-.06-.001a11.535 11.535 0 00-6.247-.07l-.082-.001 3.32-10.39 3.07 10.462zm-.346 30.746l-.06-.001a11.533 11.533 0 01-6.248-.07l-.082-.001 3.085 10.462 3.304-10.39zM10.952 22.77v.058a10.914 10.914 0 00-.07 6.13v.051L.29 25.8l10.661-3.03zm31.334.353v.058c.562 2.01.538 4.134-.07 6.13v.052l10.66-3-10.59-3.24zM17.9 12.917l-.038.044a11.223 11.223 0 00-4.472 4.283l-.038.036-5.156-9.638 9.704 5.275zm21.915 21.987l-.046.043a11.202 11.202 0 01-1.926 2.456 11.66 11.66 0 01-2.546 1.834l-.037.036 9.704 5.276-5.15-9.645zm-26.657-.3l.044.045a11.197 11.197 0 001.856 2.498c.74.738 1.58 1.375 2.495 1.891l.037.037-9.805 5.056 5.373-9.527zm22.397-21.487l.044.044a11.39 11.39 0 012.503 1.877 11.454 11.454 0 011.871 2.491l.037.037 5.373-9.52-9.828 5.07z" fill="#fff"/></svg>