<svg width="144" height="94" fill="none" xmlns="http://www.w3.org/2000/svg"><mask id="a" maskUnits="userSpaceOnUse" x="0" y="0" width="144" height="94"><path fill="#C4C4C4" d="M0 0h144v94H0z"/></mask><g mask="url(#a)" fill="#A9D18E"><path d="M72.114 48.89c-12.167 0-22.066 9.897-22.066 22.064a1.5 1.5 0 001.5 1.5h41.13a1.5 1.5 0 001.5-1.5c0-12.167-9.898-22.065-22.064-22.065zM53.107 69.453c.768-9.814 9-17.565 19.007-17.565 10.007 0 18.239 7.751 19.006 17.565H53.107zm18.647-22.545c7.143 0 12.954-5.811 12.954-12.954C84.708 26.811 78.896 21 71.754 21 64.61 21 58.8 26.811 58.8 33.954c0 7.143 5.81 12.954 12.954 12.954zm0-22.908c5.488 0 9.954 4.465 9.954 9.954 0 5.488-4.466 9.954-9.954 9.954-5.49 0-9.954-4.465-9.954-9.954 0-5.489 4.465-9.954 9.954-9.954z"/><path d="M42.788 57.166c2.461 0 4.878.656 6.99 1.898a1.5 1.5 0 101.52-2.586 16.795 16.795 0 00-8.51-2.312C33.531 54.166 26 61.697 26 70.954a1.5 1.5 0 001.5 1.5h19.012a1.5 1.5 0 100-3H29.081c.75-6.9 6.611-12.288 13.707-12.288zm-.266-5.395c5.52 0 10.014-4.492 10.014-10.014 0-5.522-4.492-10.014-10.014-10.014-5.522 0-10.014 4.492-10.014 10.014 0 5.521 4.492 10.014 10.014 10.014zm0-17.028a7.022 7.022 0 017.014 7.014 7.022 7.022 0 01-7.014 7.014 7.021 7.021 0 01-7.014-7.014 7.021 7.021 0 017.014-7.014zm59.039 19.423c-2.994 0-5.937.8-8.51 2.312a1.499 1.499 0 101.52 2.586 13.803 13.803 0 016.99-1.898c7.096 0 12.957 5.388 13.707 12.288H97.84a1.5 1.5 0 000 3h19.009a1.5 1.5 0 001.5-1.5c0-9.257-7.531-16.788-16.788-16.788zm.267-2.395c5.521 0 10.014-4.492 10.014-10.014 0-5.522-4.492-10.014-10.014-10.014-5.522 0-10.015 4.492-10.015 10.014.001 5.521 4.493 10.014 10.015 10.014zm0-17.028a7.022 7.022 0 017.014 7.014 7.022 7.022 0 01-7.014 7.014c-3.868 0-7.015-3.146-7.015-7.014a7.023 7.023 0 017.015-7.014z"/></g></svg>